<?xml version="1.0" encoding="UTF-8"?>
<svg width="8.5in" height="11in" version="1.0" viewBox="0 0 816 1056" xmlns="http://www.w3.org/2000/svg" xmlns:cc="http://creativecommons.org/ns#" xmlns:dc="http://purl.org/dc/elements/1.1/" xmlns:rdf="http://www.w3.org/1999/02/22-rdf-syntax-ns#">
 <metadata>
  <rdf:RDF>
   <cc:Work rdf:about="">
    <dc:format>image/svg+xml</dc:format>
    <dc:type rdf:resource="http://purl.org/dc/dcmitype/StillImage"/>
    <dc:title/>
   </cc:Work>
  </rdf:RDF>
 </metadata>
 <g transform="translate(0 2.4961e-5)" display="none">
  <path d="m1446.2-2724.1h4666.7m-2334-3771.2c778.01 2514.8 1556 5029.6 2334 7544.5m-2334-7544.5c-777.57 2514.8-1555.2 5029.6-2332.7 7544.5m2332.7 0c778.02-2516.2 1556-5032.5 2334-7548.7m-2334 7548.7c-777.57-2516.2-1555.2-5032.5-2332.7-7548.7m2332.7 7548.7v-7544.5m-2332.7 5762.4h4666.7m-4666.7-1101.3h4666.7m-2884.1-4661v7544.5m-1782.6 0c1555.6-2516.2 3111.1-5032.5 4666.7-7548.7m-4666.7 4.2794c1555.6 2514.8 3111.1 5029.6 4666.7 7544.5v-7548.7m-4666.7 7548.7v-7548.7m4662.4 4.2795h-4662.4m4666.7 7544.5h-4666.7m4666.7-4662.6h-4662.4m2880 4662.6v-7546.1m-2884.3 1782.5h4666.7" fill="none" stop-color="#000000" stroke="#f00" stroke-linejoin="round" stroke-width="13.528" style="font-variation-settings:normal"/>
 </g>
 <g transform="translate(0 2.4961e-5)">
  <path d="m412.43 227.26a300.68 300.77 0.84353 0 1 296.22 305.16 300.68 300.77 0.84353 0 1-305.08 296.31 300.68 300.77 0.84353 0 1-296.22-305.16 300.68 300.77 0.84353 0 1 305.08-296.31" fill-opacity="0" opacity=".999" stroke="#003da5" stroke-linecap="round" stroke-linejoin="round" stroke-width="10.462" style="paint-order:markers fill stroke"/>
  <g transform="matrix(.9168 0 0 .9168 33.948 228.85)">
   <path d="m302.25 639.88c17.073-17.004 50.167-46.585 57.306-51.224 1.7155-1.1148 3.0406-2.1054 2.9445-2.2014-0.096-0.096-3.273-0.79991-7.06-1.5642-10.473-2.1135-24.029-5.7062-33.433-8.8605l-8.462-2.8382-0.2355 5.3511c-0.37091 8.427-4.3612 14.722-11.588 18.282-2.9572 1.4566-3.6894 1.5167-17.862 1.466-8.4657-0.0303-19.688-0.52701-26.272-1.1629-21.558-2.0819-37.765-3.8067-38.732-4.1218-1.4952-0.48746 34.54-20.394 53.293-29.44l9.6356-4.6479-7.3368-4.1917c-7.6234-4.3555-19.137-11.752-25.43-16.336l-3.6435-2.6541-1.1086 3.1213c-2.3759 6.6896-9.6113 12.206-17.011 12.97-4.463 0.46062-10.054-0.9267-28.123-6.9785-16.287-5.4548-45.977-16.493-45.977-17.094 0-0.86709 43.727-11.652 62.903-15.514 1.336-0.26909 0.72974-1.136-5.8255-8.3304-4.0242-4.4165-9.6808-10.986-12.57-14.598-2.8895-3.6124-5.4676-6.8022-5.7292-7.0884-0.26157-0.28617-1.1872 0.5259-2.057 1.8046-4.784 7.033-15.168 9.9347-23.337 6.5214-5.6518-2.3615-21.459-12.532-45.203-29.085l-13.757-9.5905 24.332-0.1721c13.383-0.0946 27.923 0.0579 32.312 0.33891 4.389 0.28105 7.98 0.3943 7.98 0.25165 0-0.14263-2.1837-4.5808-4.8527-9.8626-4.1769-8.2658-8.7153-18.279-10.955-24.171l-0.63554-1.6716-1.2416 1.5785c-0.6829 0.86818-2.8205 2.453-4.7501 3.5219-3.1206 1.7285-4.1257 1.9425-9.0913 1.9355-6.7694-9e-3 -9.1049-1.0649-15.41-6.9633-6.8504-6.4082-42.145-46.365-41.513-46.997 0.55867-0.55866 45.632 11.812 56.554 15.521 3.2287 1.0966 5.936 1.9938 6.0162 1.9938 0.0804 0-0.26608-1.6995-0.76965-3.7767-1.5757-6.4993-4.1252-20.657-4.8853-27.129-0.40079-3.4124-0.8735-6.9068-1.0505-7.7653l-0.32175-1.5609-1.4444 1.3226c-6.7181 6.1516-18.313 5.8471-24.812-0.65161-1.0946-1.0946-3.7564-4.981-5.9151-8.6365-4.0844-6.9163-25.561-49.292-25.561-50.435 0-1.5447 46.765 25.378 53.957 31.063l2.398 1.8955 0.38546-7.7212c0.33706-6.7514 2.0029-26.015 2.87-33.189l0.29976-2.4798-3.4335 2.1344c-2.8119 1.748-4.2578 2.1809-7.9868 2.3916-5.7699 0.32602-9.6273-1.0624-13.381-4.8164-3.3256-3.3256-4.6649-6.7068-8.138-20.544-3.0305-12.074-10.063-45.519-9.6572-45.925 0.57658-0.57658 42.461 41.647 44.367 44.727 1.2288 1.985 2.1088 2.8668 2.2942 2.2988 0.16542-0.50676 1.3842-4.9115 2.7083-9.7883 2.4028-8.8493 6.3616-20.383 10.089-29.392 1.0835-2.619 1.8521-4.7618 1.708-4.7618-0.14409 0-1.3245 0.72106-2.6232 1.6024-9.4018 6.3802-22.689 1.0407-25.235-10.141-0.37017-1.6256-0.68274-7.6847-0.69466-13.465-0.0244-11.877 1.219-42.23 1.864-45.502 0.4083-2.0716 0.74509-1.6377 8.9074 11.476 10.677 17.153 19.721 32.993 21.412 37.499 0.71675 1.9101 1.3101 4.5702 1.3186 5.9113 0.0142 2.2687 0.27832 1.9357 3.7939-4.7865 5.3436-10.218 10.726-19.079 16.929-27.873 2.9468-4.1773 5.2772-7.6908 5.1785-7.8077-0.0986-0.11694-1.1267 0.27728-2.2847 0.87609-7.2705 3.7598-17.272 0.41494-21.08-7.0501-2.2634-4.4367-2.2592-7.8685 0.0208-17.277 3.1297-12.914 13.631-47.378 14.248-46.761 0.5357 0.53571 9.3953 29.344 12.063 39.226 3.6636 13.569 4.2266 16.963 3.4321 20.688-0.52627 2.4676-0.49709 2.9259 0.1409 2.2133 0.44256-0.49429 3.6674-4.1971 7.1663-8.2286 3.4989-4.0314 10.387-11.199 15.307-15.928l8.9453-8.5977h-3.3879c-8.5968 0-14.784-6.3156-14.799-15.107-6e-3 -3.7436 0.34254-4.9567 2.8337-9.8521 3.6337-7.1407 8.1766-14.896 18.082-30.87l7.9424-12.808 0.43027 6.2397c0.93169 13.512 1.3985 48.25 0.68256 50.793-0.67565 2.3998-0.65069 2.4769 0.53169 1.642 0.68233-0.48183 4.4338-3.1404 8.3366-5.9079 14.244-10.101 28.217-18.206 42.872-24.869 4.7487-2.1589 8.8386-3.9172 9.0886-3.9074 0.25002 0.0099-3.3877 2.0142-8.0839 4.4543-37.43 19.448-67.714 45.097-92.712 78.52-51.678 69.096-65.851 160.16-37.629 241.78 12.45 36.005 32.418 68.399 59.07 95.825 29.354 30.208 63.37 51.786 102.74 65.174 10.788 3.6688 31.717 9.2202 32.355 8.5822 0.19879-0.19878-1.8407-3.8515-4.5323-8.1172-8.6333-13.682-25.753-42.851-25.35-43.193 0.38257-0.32501 26.635 11.907 42.909 19.992 24.989 12.416 28.701 15.365 30.983 24.611 0.83518 3.3844 0.9111 4.9806 0.36765 7.7291-0.3767 1.9052-0.54768 3.686-0.37995 3.9574 0.16774 0.27139 3.2257 0.49344 6.7955 0.49344 3.5698 0 6.6278-0.22205 6.7955-0.49344 0.16773-0.2714-3e-3 -2.0522-0.37996-3.9574-0.54345-2.7485-0.46752-4.3448 0.36766-7.7291 2.2818-9.2464 5.9942-12.195 30.983-24.611 16.274-8.0858 42.527-20.317 42.909-19.992 0.40233 0.34184-16.717 29.51-25.35 43.193-2.6916 4.2656-4.7311 7.9184-4.5323 8.1172 0.65488 0.65488 21.94-5.0187 32.713-8.7197 38.535-13.238 70.399-33.194 99.443-62.28 21.637-21.668 37.878-44.419 50.512-70.76 36.789-76.703 34.091-165.96-7.265-240.34-25.7-46.22-63.654-82.882-111.58-107.79-4.6962-2.4401-8.3402-4.4445-8.0977-4.4543 0.82623-0.03329 16.619 7.2855 22.219 10.297 11.337 6.0966 25.812 15.222 34.154 21.532 5.3275 4.0297 5.2585 4.0116 4.4568 1.1654-0.7026-2.4946-0.22391-37.408 0.69576-50.746l0.43026-6.2397 7.9424 12.808c9.9055 15.973 14.448 23.729 18.082 30.87 2.4911 4.8954 2.84 6.1085 2.8337 9.8521-0.015 8.7728-6.2029 15.107-14.759 15.107h-3.348l9.1781 8.8827c7.8332 7.581 16.679 17.092 21.671 23.301l1.3203 1.642-0.67698-3.1985c-0.80926-3.8234-0.26502-7.1306 3.4189-20.775 2.6681-9.8821 11.528-38.691 12.063-39.226 0.16795-0.16791 1.7851 4.3776 3.5936 10.101 9.2411 29.245 12.909 43.579 12.353 48.274-0.69708 5.8856-4.1068 10.48-9.6343 12.982-4.422 2.0017-8.3096 1.7578-14.624-0.91752-0.63768-0.27019 1.19 2.8658 4.0616 6.9689 5.8809 8.403 13.516 20.996 18.04 29.755 2.8528 5.5229 3.0312 5.7274 3.0312 3.4729 0-1.3175 0.58648-3.9583 1.3032-5.8684 1.6912-4.5068 10.735-20.346 21.412-37.499 8.1623-13.114 8.4991-13.547 8.9074-11.476 0.64506 3.2728 1.8884 33.626 1.864 45.502-0.0118 5.7799-0.32453 11.839-0.69464 13.465-2.5516 11.206-15.834 16.52-25.276 10.113-1.2762-0.86607-2.4419-1.5747-2.5904-1.5747-0.14851 0 0.57405 1.995 1.6056 4.4334 3.4121 8.0655 7.7572 20.727 10.199 29.721 1.3241 4.8768 2.5429 9.2815 2.7083 9.7883 0.18679 0.5723 1.0672-0.28709 2.3237-2.2684 2.1905-3.4541 20.978-22.775 35.63-36.643 7.9022-7.4788 9.0642-8.3676 8.7159-6.666-6.776 33.101-11.146 51.834-13.657 58.545-1.7051 4.5572-5.7567 8.7932-9.9377 10.39-4.8113 1.8374-11.217 1.2212-15.595-1.5003l-3.4514-2.1455 0.39302 3.1478c0.99842 7.9961 2.4264 24.29 2.7947 31.886l0.40609 8.377 2.3968-1.8945c7.1915-5.6845 53.956-32.606 53.956-31.062 0 1.1428-21.476 43.519-25.561 50.435-2.1587 3.6555-4.8206 7.542-5.9151 8.6365-6.4939 6.4939-18.093 6.8031-24.802 0.66117l-1.4343-1.3131-0.33575 2.2082c-0.18469 1.2145-0.94817 6.4939-1.6966 11.732-0.74843 5.2381-2.1928 13.292-3.2098 17.898-1.017 4.6059-1.8064 8.3743-1.7543 8.3743 0.052 0 2.7365-0.89722 5.9651-1.9938 10.921-3.7094 55.995-16.08 56.554-15.521 0.26161 0.26163-20.238 24.181-29.726 34.684-15.298 16.936-19.741 20.011-28.135 19.472-5.1893-0.33302-10.575-2.6937-12.906-5.6568-1.1596-1.4744-1.2747-1.4985-1.6902-0.35545-1.7745 4.8828-7.0554 16.562-11.134 24.623-2.6723 5.2818-4.8587 9.72-4.8587 9.8626 0 0.14265 3.591 0.0293 7.98-0.25165 4.389-0.28106 18.929-0.43356 32.312-0.33891l24.332 0.1721-13.757 9.5905c-23.744 16.553-39.552 26.724-45.203 29.085-8.1692 3.4133-18.553 0.51164-23.337-6.5214-0.86982-1.2787-1.798-2.0908-2.0626-1.8046-0.26469 0.28617-2.8238 3.476-5.6869 7.0884-2.8631 3.6124-8.5234 10.18-12.578 14.595-6.6289 7.2169-7.2208 8.0572-5.8678 8.3304 19.381 3.9122 62.916 14.65 62.916 15.517 0 0.60053-29.69 11.639-45.977 17.094-18.07 6.0518-23.66 7.4391-28.123 6.9785-7.3741-0.76108-14.494-6.1663-17.012-12.915l-1.1692-3.1336-5.9113 4.2448c-6.3851 4.5851-19.833 13.056-26.416 16.64l-4.0847 2.2236 9.6676 4.6633c18.78 9.0591 54.822 28.967 53.325 29.455-0.96653 0.31511-17.174 2.0399-38.732 4.1218-6.5845 0.6359-17.807 1.1326-26.272 1.1629-14.172 0.0507-14.905-9e-3 -17.862-1.466-7.2271-3.5598-11.217-9.855-11.588-18.282l-0.23551-5.3511-8.462 2.8382c-9.4046 3.1543-22.961 6.747-33.433 8.8605-3.787 0.76427-6.964 1.4682-7.06 1.5642-0.096 0.096 1.229 1.0867 2.9446 2.2014 7.1389 4.6389 40.232 34.22 57.306 51.224l1.642 1.6353-3.6124-0.43292c-17.831-2.1369-56.074-8.6192-68.29-11.575-11.556-2.7964-15.633-5.5343-19.512-13.101-1.6276-3.1751-1.8514-4.3282-1.8484-9.5237 4e-3 -6.768 1.2237-10.234 5.1203-14.547l2.316-2.5635h-43.122l2.316 2.5635c3.8966 4.313 5.1165 7.7788 5.1203 14.547 3e-3 5.1955-0.22088 6.3487-1.8484 9.5237-3.879 7.5671-7.9567 10.305-19.512 13.101-12.216 2.9562-50.459 9.4385-68.29 11.575l-3.6124 0.43292z" fill="#003da5" stroke="#003da5" stroke-width=".65681"/>
   <g fill="none" stroke="#003da5" stroke-miterlimit="10">
    <g transform="matrix(.64081 0 0 .64081 148.57 43.852)" stroke-linecap="round">
     <g stroke-width="18.36">
      <path d="m187.4 370.4c-11.9 0.3-25.9-0.1-37.5-0.3-21.9-0.3-39.4 8.7-39.4 32.2 0 39.1 60.6 95.7 73.3 146.7"/>
      <path d="m289.5 292.4c-45.6-6.3-83.3-13.8-100.3 13.7-27 43.6 35.6 150.7 55.1 222.4"/>
      <path d="m404.3 285.7c-24.3-9-67.9-61.7-99.8-33.9-43.6 37.9 22.9 173.9 38.1 260.5m280.7-141.9c11.9 0.3 25.9-0.1 37.5-0.3 21.9-0.3 39.4 8.7 39.4 32.2 0 39.1-60.6 95.7-73.3 146.7"/>
      <path d="m521.3 292.4c45.6-6.3 83.3-13.8 100.3 13.7 27 43.6-35.6 150.7-55.1 222.4"/>
      <path d="m406.5 285.7c24.3-9 67.9-61.7 99.8-33.9 43.6 37.9-22.9 173.9-38.1 260.5"/>
     </g>
     <path d="m405.4 285.3v170.9" stroke-width="15.12"/>
    </g>
    <path d="m554.14 397.9 17.814-44.087c-7.1129 9.3558-15.892 10.766-21.723 9.1635-17.302-5.1264-16.981-26.017-15.636-42.614-10.509 18.904-25.184 28.644-40.948 25.312-15.956-3.3963-25.632-25.953-24.991-43.959-11.214 22.813-31.656 34.668-60.3 34.668s-49.086-11.855-60.3-34.668c0.70489 18.007-8.9713 40.563-24.991 43.959-15.764 3.3322-30.374-6.408-40.948-25.312 1.2175 16.597 1.6661 37.487-15.636 42.614-5.8313 1.7302-14.674 0.19224-21.723-9.1635l17.814 44.087" stroke-width="11.765"/>
    <g transform="matrix(.64081 0 0 .64081 148.57 43.852)" stroke-linecap="round" stroke-width="21.6">
     <path d="m167.9 574.8c0-34.3 106.3-61.7 237.4-61.7s237.4 27.3 237.4 61.7m-475 1.9 16.2 65m459.2-65-16.2 65"/>
     <path d="m626.8 641.1a221.4 49.7 0 0 1-221.4 49.7 221.4 49.7 0 0 1-221.4-49.7 221.4 49.7 0 0 1 221.4-49.7 221.4 49.7 0 0 1 221.4 49.7"/>
    </g>
   </g>
   <path d="m401.89 180.51v-3.1139h-71.309v-13.701l7.0064-4e-3 11.637-46.739c6.4005-25.707 11.707-47.004 11.791-47.329 0.14447-0.55236-0.0643-0.58955-3.3075-0.58955h-3.4617v-13.703h47.643v-7.162h-14.947v-11.835h14.947v-7.1621h-7.7849l-2e-4 -5.8386-1.9e-4 -5.8387h7.6296l0.087-3.4253 0.087-3.4253 12.438 0.18078v6.7436l3.6589 0.02263c2.0124 0.01255 3.764 0.03088 3.8924 0.04106 0.12844 0.0097 0.23355 2.6066 0.23355 5.7699v5.7515l-3.9703 0.08717c-3.558 0.07817-3.9662 0.14375-3.9313 0.6321 0.0215 0.29972 0.0564 1.8762 0.0778 3.5032l0.039 2.9582h14.947v11.822l-14.989 0.16684-0.0478 6.8507 47.733 0.15956v13.698h-3.4254c-1.8839 0-3.4253 0.09672-3.4253 0.21493 0 0.16096 12.558 50.696 23.103 92.97l0.36899 1.4791h7.0443v13.699l-71.395 0.1584 0.0612 3.0361 0.0611 46.208-6.0261-0.12446-6.4661-0.15315v-46.008zm63.836-17.354c0-0.29655-3.2461-13.574-7.2136-29.505-3.9675-15.931-9.1918-36.953-11.609-46.715l-4.3958-17.749h-28.208l-0.109 6.3838 0.85634-7.5e-5c0.76432-7.5e-5 0.85635 0.11235 0.85635 1.0464v1.0464l3.5032 0.16217c5.1217 0.23709 7.9083 1.4752 9.8212 4.3635l0.84408 1.2745 0.19601 9.0542c0.15669 7.2371 0.32993 9.8041 0.86316 12.791 1.3611 7.6235 3.6779 14.365 6.9191 20.133 1.4798 2.6336 5.1793 7.9233 6.1523 8.7968 0.71479 0.64178 0.90565 1.2972 0.27145 0.93223-0.22616-0.13022-0.28049-0.10525-0.12976 0.0594 0.14271 0.15592 0.36198 0.28348 0.48724 0.28348 0.51292 0 6.3774 5.6969 7.0523 6.8507 0.81916 1.4005 1.3813 4.3365 1.3848 7.2328 2e-3 1.6734-0.0935 1.9997-0.69827 2.3818-1.1756 0.74295-14.393 2.1213-25.855 2.6961-11.853 0.59445-11.626 0.56863-11.989 1.366-0.71545 1.5702-4.8729 2.5896-8.5072 2.086-2.9725-0.41191-4.5819-1.2788-5.1372-2.767-0.017-0.0454-3.0297-0.22079-6.695-0.38946-13.877-0.63862-29.474-2.1618-30.762-3.0041-0.72518-0.47438-0.73925-0.56686-0.58406-3.8408 0.12948-2.732 0.30951-3.6835 0.96977-5.1256 0.46597-1.0179 0.94935-1.6852 1.1367-1.5694 0.17928 0.11078 0.28748 0.0661 0.2404-0.0995-0.0471-0.16548 1.3879-1.7523 3.1888-3.5263 6.6153-6.5166 11.084-13.733 13.983-22.58 2.5262-7.7104 3.4507-14.27 3.4507-24.484 0-7.7275 0.12801-8.2484 2.5336-10.307 2.0474-1.7525 4.2133-2.4347 8.2874-2.6102l3.5032-0.15094v-1.0507c0-0.93878 0.0912-1.0506 0.85632-1.05l0.85635 6e-4 -0.0979-3.2703-0.0977-3.2703-28.141 3.64e-4 -1.9327 7.8625c-2.9605 12.044-21.264 85.638-21.453 86.256-0.15806 0.51763 2.7295 0.54493 57.618 0.54493 54.59 0 57.785-0.0298 57.785-0.53919z" fill="#003da5"/>
  </g>
  <path d="m413.84 125.13a402.91 402.91 0 0 0-408.71 397.03 402.91 402.91 0 0 0 397.03 408.71 402.91 402.91 0 0 0 408.71-397.03 402.91 402.91 0 0 0-397.03-408.71" fill="none" opacity=".999" stroke="#ffb81c" stroke-linecap="round" stroke-width="10.178" style="paint-order:markers fill stroke"/>
  <g transform="matrix(.10795 0 0 .10795 5.0457e-5 800.41)" fill="#7c7e7f" stroke="#7c7e7f" style="white-space:pre" aria-label="CHESS CLUB">
   <path d="m1731.8-4985c116.71 134.29 91.658 252.51 9.0349 343.72-101.7 104.29-252.15 100.23-380.43-17.626-127-116.68-146.21-266.15-43.602-377.83 71.586-76.636 168.62-102.83 260.24-53.956l4.6908-5.1057-101.71-69.911c-58.26 14.735-123.68 48.787-181.14 111.33-129 140.41-119.67 317.28 18.824 444.51 141.04 129.58 319.09 118.98 442.27-13.822 80.916-88.072 93.481-182.45 69.672-266.7l-93.162-99.715z"/>
   <path d="m2496.9-5215-5.4956-6.7572-8.6814 5.7267c-25.32 16.703-59.663 10.286-75.888-14.311l-264.86-401.51c-16.703-25.32-9.0851-59.416 16.236-76.119l8.6813-5.7267-4.0488-7.7116-158.43 104.51 4.7722 7.2345 9.4047-6.2039c24.597-16.226 58.216-9.3313 75.888 14.311l127.42 193.16-296.61 195.66-126.94-192.44c-15.979-25.798-8.3616-59.894 16.236-76.119l9.4048-6.2039-4.7722-7.2345-157.71 104.03 4.7722 7.2345 8.6813-5.7267c25.32-16.703 58.939-9.8085 76.365 15.035l264.86 401.51c16.226 24.597 9.085 59.416-16.236 76.119l-8.6813 5.7267 4.0487 7.7117 158.43-104.51-4.7722-7.2345-9.4048 6.2039c-25.32 16.703-59.416 9.0851-76.365-15.035l-123.6-187.37 296.61-195.66 123.6 187.37c15.979 25.798 8.3616 59.894-16.236 76.119l-9.4047 6.2039 4.7722 7.2345z"/>
   <path d="m2927.3-5530.3-8.0893 3.1104c-1.4374 71.121-16.687 128.05-102.43 161.02l-116.49 44.79-93.313-242.68 137.52-52.878c22.152-7.5893 45.982 3.6752 54.381 25.516l4.3546 11.325 8.0893-3.1105-49.145-127.81-8.0893 3.1104 4.6657 12.134c8.3982 21.841-2.5553 46.48-24.396 54.879l-136.71 52.567-96.113-249.96 165.02-63.453c26.508-8.3356 54.009 5.2315 63.963 31.117l5.2877 13.752 8.4003-2.3015-30.171-78.466-9.3313-24.268c-12.072 12.07-55.88 38.2-90.664 51.575l-236.21 90.825 3.1104 8.0892 10.516-4.0436c26.695-10.264 56.623 2.3695 69.003 27.322l174.18 453c10.576 27.504-3.8631 59.983-32.176 70.869l-9.7071 3.7325 3.1104 8.0893 334.9-128.77z"/>
   <path d="m3076.9-5844.6c-32.417-19.856-45.515-49.01-50.246-71.927-10.513-50.926 21.44-106.19 84.249-119.16 52.624-10.863 101.9 13.478 113.11 67.799l8.4877-1.7522-21.376-103.55-33.951 7.0087c-23.968-0.3618-52.005 1.0012-74.922 5.7321-96.76 19.975-133.64 102.81-118.92 174.1 6.8335 33.102 26.278 71.565 67.56 95.786l193.3 117.61c25.424 15.99 43.412 38.825 50.421 72.776 13.842 67.053-29.172 120.18-90.256 137.21-74.84 18.989-142.25-24.616-151.98-114.64l-6.7902 1.4017c-5.6956 40.998 2.9719 95.845 14.345 120.93 40.286 27.966 111.49 25.656 153.08 17.071 97.609-20.15 146.08-98.296 126.8-191.66-7.1839-34.8-24.23-70.218-64.664-94.614z"/>
   <path d="m3543.7-5914.1c-29.141-24.412-37.805-55.176-39.11-78.54-2.9018-51.919 36.839-101.88 100.87-105.46 53.65-2.9985 98.802 28.331 101.9 83.711l8.6532-0.4836-5.3199-95.185-0.5804-10.384-34.613 1.9345c-23.654-3.8861-51.586-6.6651-74.949-5.3593-98.646 5.5133-147.32 82.015-143.26 154.7 1.8862 33.747 15.457 74.654 52.724 104.69l173.88 144.79c22.794 19.558 37.224 44.793 39.159 79.405 3.8207 68.36-46.546 114.58-109.47 122.43-76.82 7.7656-137.07-45.288-133.45-135.76l-6.9225 0.3869c-11.669 39.713-11.17 95.238-3.613 121.72 35.73 33.592 106.5 41.789 148.9 39.419 99.511-5.5617 158.96-75.722 153.64-170.91-1.9829-35.478-13.629-73.02-50.031-103.1z"/>
   <path d="m4697.4-5633.3c-57.035 168.53-171.73 206.57-292.17 181.27-141.36-35.163-213.78-167.09-176.78-337.32 36.636-168.53 155.97-260.55 304.18-228.33 102.29 23.123 173.87 93.672 177.92 197.43l6.7751 1.4728 9.0204-123.09c-42.124-42.86-104.54-82.147-187.53-100.19-186.32-40.502-334.3 56.817-374.25 240.59-40.686 187.16 58.327 335.51 235.14 374.84 116.87 25.406 204.69-11.379 265.41-74.454l39.066-130.75z"/>
   <path d="m5161.8-5310.9c-51.259 49.323-102.27 78.847-186.25 41.609l-114.09-50.586 209.72-472.99c12.736-26.586 44.756-38.934 72.486-26.638l10.3 4.5668 3.5129-7.9228-172.72-76.582-3.5129 7.9228 9.5073 4.2155c27.73 12.295 40.87 44.667 28.926 71.604l-194.97 439.71c-11.944 26.937-45.108 39.726-72.837 27.431l-9.5073-4.2155-3.5129 7.9227 328 145.44 102.86-107.97z"/>
   <path d="m5872.6-5397.2-5.0531 7.0411 11.266 8.085c19.715 14.149 26.002 41.063 12.558 61.283l-199.09 277.42c-69.733 97.167-178.89 116.97-273.24 49.261-89.422-64.175-100.26-175.42-26.48-278.22l192.52-268.27c14.853-19.21 41.659-22.374 61.374-8.2252l11.97 8.5903 5.0531-7.0411-142.93-102.58-5.0531 7.0411 11.266 8.085c20.419 14.654 26.002 41.062 12.052 61.987l-199.6 278.12c-78.829 109.84-53.225 239.16 63.658 323.04 114.07 81.86 243.17 62.503 322.5-48.043l199.6-278.12c14.853-19.21 41.154-21.67 60.869-7.521l11.97 8.5903 5.0531-7.0411z"/>
   <path d="m6154.9-5154-6.4165 5.8258 7.5735 8.3415c19.808 21.816 19.319 57.378-3.1388 77.768l-356.12 323.33c-23.04 19.749-57.901 17.453-77.709-4.3631l-7.5735-8.3414-6.4165 5.8258 142.15 156.56c86.804 95.606 183.86 105.81 256.37 39.979 63.523-57.675 75.704-144.82 23.635-222.8 43.473 27.253 107.66 32.19 162.2-17.329 64.165-58.258 62.297-146.7-19.847-237.17zm-343.33 477.95 404.88-367.61 30.877 34.007c55.345 60.957 51.691 123.97-6.0576 176.41-82.773 75.153-154.91 18.908-189.81-20.816l-6.4165 5.8258c56.51 62.24 115.62 159.58 20.016 246.38-65.448 59.423-137.04 55.355-196.4-11.317z"/>
  </g>
  <g transform="matrix(.10793 -.0021324 .0021324 .10793 4.8168 812.44)" fill="#7c7e7f" stroke="#7c7e7f" style="white-space:pre" aria-label="UC RIVERSIDE">
   <path d="m1809.1-292.84-5.7601 6.4755 10.361 9.2163c18.131 16.128 21.576 43.551 6.0953 62.259l-226.95 255.13c-79.49 89.362-190.12 97.67-276.89 20.484-82.238-73.154-81.406-184.93 2.6918-279.47l219.46-246.72c16.776-17.555 43.766-17.905 61.897-1.777l11.008 9.7923 5.7602-6.4755-131.45-116.93-5.7602 6.4755 10.361 9.2163c18.779 16.704 21.576 43.551 5.5192 62.906l-227.53 255.78c-89.858 101.02-77.886 232.3 29.606 327.92 104.9 93.315 235.32 87.532 325.75-14.133l227.53-255.78c16.776-17.555 43.19-17.258 61.321-1.1294l11.008 9.7923 5.7602-6.4755z"/>
   <path d="m2200.3 390.24c-109.32 140.37-230.15 138.54-335.56 75.019-121.91-79.725-146.88-228.14-55.921-376.71 90.059-147.09 233.03-194.7 362.38-115.51 88.981 55.499 133.36 145.67 103.03 244.99l5.913 3.6205 49.028-113.27c-25.672-54.335-71.678-111.97-144.11-156.32-162.61-99.563-334.38-56.366-432.58 104.02-100.02 163.35-55.341 336.02 98.684 431.34 102 62.453 197.03 56.618 275.12 17.039l79.921-110.61z"/>
   <path d="m2556.1 161.93-2.7912 8.2049 9.8459 3.3494c28.717 9.7692 44.696 40.837 34.927 69.555l-154.91 455.37c-10.59 28.438-41.379 43.596-70.096 33.827l-9.8459-3.3494-2.7912 8.2049 178.87 60.848 2.7912-8.2049-10.666-3.6286c-28.717-9.7692-43.596-41.379-34.927-69.555l166.36-489.01c10.666 3.6286 61.274 19.014 102.56 34.89 59.6 23.937 81.974 84.644 59.036 160.15-6.1406 18.051-14.48 37.184-22.491 47.276-48.094 66.029-113.8 54.662-157.02 41.788-24.615-8.3736-43.486-14.793-43.486-14.793l-2.5121 7.3844c30.358 10.327 44.383 47.139 56.505 81.472 4.0518 9.6174 50.992 175.72 56.109 190.28 15.108 39.011 42.176 93.991 118.48 119.95l45.127 15.352 2.7912-8.2049c-47.588-16.189-69.294-51.952-90.653-99.497-19.456-45.067-56.228-171.09-56.228-171.09-8.0531-27.456-24.277-63.185-38.716-77.252 78.767 26.795 165.72-29.676 192.8-109.26 32.378-95.177-9.0624-175.19-108.34-208.96z"/>
   <path d="m3083.4 935.78-11.011-2.3859c-29.645-6.4236-48.223-35.279-42.83-64.261l101.86-470.09c7.2706-29.462 36.973-47.856 65.771-41.616l11.011 2.3859 1.8354-8.4701-184.65-40.01-1.8353 8.4701 10.164 2.2024c29.645 6.4236 49.07 35.462 42.646 65.108l-101.86 470.09c-6.2401 28.798-35.942 47.192-65.588 40.769l-10.164-2.2024-1.8353 8.4701 184.65 40.01z"/>
   <path d="m3657.7 403.62-0.7632 8.633 7.7697 0.68687c22.446 1.9843 44 23.901 27.997 57.288l-227.33 435.81-141.3-468.4c-9.0334-35.6 15.168-53.472 37.614-51.488l7.7697 0.68688 0.7632-8.633-195.11-17.248-0.7632 8.633 6.9064 0.61056c27.626 2.4422 58.118 21.669 72.026 61.18l193.59 575.68 7.7697 0.6869c1.679-18.993 39.803-86.096 39.803-86.096l248.4-447.87c21.487-36.382 53.94-49.174 80.702-46.808l7.7697 0.68688 0.7632-8.633z"/>
   <path d="m4222.7 848.42-8.6492 0.54972c-22.635 67.438-54.208 117.21-145.89 123.03l-124.55 7.916-16.492-259.48 147.04-9.3453c23.408-0.61933 42.781 17.255 44.265 40.607l0.7696 12.109 8.6492-0.54972-8.6856-136.66-8.6492 0.54972 0.8246 12.974c1.4842 23.353-16.335 43.591-39.688 45.075l-146.17 9.2903-16.986-267.26 176.44-11.214c27.788-0.0293 49.975 21.139 51.734 48.817l0.9345 14.704 8.7042 0.3152-4.4527-70.059-0.8796-13.839-1.6492-25.948c-15.129 7.9089-64.744 19.746-101.94 22.11l-252.56 16.052 0.5497 8.6492 11.244-0.71464c28.542-1.8141 53.325 19.19 57.678 46.702l30.784 484.36c1.8691 29.407-21.62 56.084-51.892 58.008l-10.379 0.6597 0.5497 8.6492 358.08-22.758z"/>
   <path d="m4189.6 383.96 1.7702 8.484 10.181-2.1242c29.694-6.1956 59.254 12.426 65.449 42.12l98.244 470.86c5.3472 29.871-13.452 58.582-43.145 64.778l-10.181 2.1242 1.7702 8.484 184.95-38.59-1.7701-8.484-11.029 2.3012c-29.694 6.1956-58.582-13.451-65.449-42.12l-105.5-505.64c11.029-2.3012 62.427-14.796 106.05-22.127 63.489-9.7056 113.63 31.182 132.28 107.85 3.8943 18.665 6.4459 39.38 4.6822 52.143-7.8236 81.312-70.178 104.95-113.94 115.85-25.452 5.3105-44.965 9.3819-44.965 9.3819l1.5931 7.6356c31.391-6.5496 62.19 18.011 90.09 41.405 8.3803 6.2194 133.28 125.35 145.09 135.28 32.85 25.903 84.12 59.472 163.02 43.01l46.662-9.7359-1.7701-8.484c-49.207 10.267-86.085-9.4837-128.66-39.556-39.674-28.906-135.43-118.71-135.43-118.71-20.899-19.543-53.041-42.053-72.627-46.82 81.446-16.994 127.59-109.84 110.42-192.14-20.534-98.414-96.909-146.22-199.56-124.8z"/>
   <path d="m4823.7 428.38c-34.774-15.36-51.64-42.509-59.382-64.591-17.205-49.071 7.0993-108.1 67.621-129.32 50.707-17.778 102.78-0.21904 121.13 52.124l8.1786-2.8674-31.542-89.964-3.4409-9.8143-32.714 11.47c-23.803 2.835-51.408 7.9215-73.49 15.664-93.236 32.689-118.75 119.7-94.665 188.4 11.183 31.896 35.579 67.426 79.721 85.93l207.25 90.81c27.328 12.46 48.198 32.694 59.668 65.409 22.653 64.611-12.899 122.99-71.169 148.02-71.642 28.792-144.26-5.4438-165.9-93.368l-6.5428 2.294c-0.1822 41.391 15.716 94.594 30.33 117.94 43.653 22.349 113.91 10.573 153.99-3.4778 94.054-32.976 131.68-116.88 100.14-206.85-11.757-33.532-33.37-66.364-76.694-85.154z"/>
   <path d="m5422.9 619.29-10.234 4.7122c-27.553 12.687-59.744 0.79408-72.856-25.609l-201.18-436.91c-11.9-27.915 0.7804-60.469 27.546-72.794l10.234-4.7123-3.6248-7.8722-171.61 79.021 3.6248 7.8722 9.4467-4.3498c27.553-12.687 60.532-1.1566 73.218 26.396l201.18 436.91c12.324 26.766-0.3556 59.32-27.908 72.007l-9.4467 4.3498 3.6248 7.8722 171.61-79.021z"/>
   <path d="m5201.4 76.005 4.1574 6.5997 9.5329-6.0051c24.199-15.244 57.746-10.769 72.99 13.43l258.68 410.65c16.168 25.666 7.8357 59.594-17.83 75.762l-8.7996 5.5431 3.8859 7.795 248.59-156.59c156.93-98.852 198.59-268.49 101.58-422.49s-268-189.68-424.93-90.824zm117.25-43.133 144.46-91c124.66-78.528 267.38-37.324 356.08 103.47 88.228 140.06 64.492 286.12-60.904 365.11l-144.46 91z"/>
   <path d="m6308.6-162.86-6.513 5.7176c23.263 67.224 28.658 125.92-40.381 186.52l-93.788 82.333-171.53-195.39 110.72-97.199c18.157-14.786 44.413-12.464 59.851 5.121l8.0046 9.1183 6.5131-5.7176-90.338-102.91-6.5131 5.7176 8.5764 9.7696c15.438 17.585 13.687 44.493-3.8979 59.93l-110.07 96.627-176.67-201.25 132.87-116.64c21.985-16.994 52.483-13.782 70.779 7.06l9.7199 11.072 7.0848-5.0663-55.461-63.177-17.153-19.539c-7.1495 15.502-39.208 55.177-67.214 79.763l-190.18 166.95 5.7176 6.5131 8.467-7.4329c21.493-18.868 53.944-17.372 74.194 1.755l320.19 364.73c19.44 22.144 17.133 57.613-5.6629 77.625l-7.8157 6.8611 5.7176 6.5131 269.64-236.71z"/>
  </g>
 </g>
 <g transform="translate(0 -6503.1)" font-family="sans-serif" font-size="40px" letter-spacing="0px">
  <text text-align="center" style="line-height:1.25;shape-inside:url(#rect4932);white-space:pre" xml:space="preserve"/>
  <text text-align="center" style="line-height:1.25;shape-inside:url(#rect4944);white-space:pre" xml:space="preserve"/>
 </g>
</svg>
