<?xml version="1.0" encoding="UTF-8"?>
<svg width="1189mm" height="767mm" version="1.1" viewBox="0 0 4493.9 2898.9" xmlns="http://www.w3.org/2000/svg" xmlns:cc="http://creativecommons.org/ns#" xmlns:dc="http://purl.org/dc/elements/1.1/" xmlns:rdf="http://www.w3.org/1999/02/22-rdf-syntax-ns#">
 <metadata>
  <rdf:RDF>
   <cc:Work rdf:about="">
    <dc:format>image/svg+xml</dc:format>
    <dc:type rdf:resource="http://purl.org/dc/dcmitype/StillImage"/>
    <dc:title/>
   </cc:Work>
  </rdf:RDF>
 </metadata>
 <g transform="translate(0 1957.9)">
  <path d="m-3.3642e-5 -508.45v-1450.2h4493.9v2900.4h-4493.9zm1342.9 1064.7c15.592-5.9075 22.58-14.975 22.228-28.842-0.3185-12.562-0.3185-12.562-3.3125-1.3248-3.958 14.856-14.571 24.342-29.469 26.34-24.745 3.319-40.873-13.333-40.873-42.201 0-26.87 13.974-43.151 37.036-43.151 12.866 0 20.649 4.5783 27.844 16.378 5.988 9.8205 5.988 9.8205 5.9995 1.6858 0.022-14.77-9.2312-22.088-29.582-23.397-32.443-2.0869-50.811 13.412-52.844 44.59-1.4431 22.132 5.5619 36.424 22.655 46.224 13.137 7.5315 26.875 8.7916 40.318 3.6982zm372.52-4.2779c13.122-13.122 10.454-24.307-10.928-45.821-18.394-18.508-22.307-27.868-14.795-35.381 5.8849-5.8849 17.106-4.3009 22.325 3.1516 4.7671 6.8061 4.7981 6.7863 4.7981-3.0822 0-9.4753-0.5483-9.9324-11.913-9.9324-16.665 0-28.156 9.5434-28.156 23.384 0 8.981 2.836 13.27 18.493 27.97 19.344 18.162 22.204 25.738 13.392 35.475-9.4746 10.469-28.803 4.8715-28.803-8.3418 0-4.1784-1.387-7.5971-3.0822-7.5971s-3.0823 4.6425-3.0823 10.317c0 7.653 1.7906 11.18 6.935 13.661 12.347 5.9546 26.616 4.3958 34.815-3.8036zm98.935 0.25921c6.3917-5.4979 8.4938-10.097 8.4938-18.585 0-9.8631-2.3981-13.505-19.11-29.017-19.818-18.396-22.48-24.501-14.266-32.715 6.9503-6.9503 18.251-5.968 24.063 2.0915 5.0009 6.935 5.0009 6.935 4.2287-2.3117-0.7119-8.5264-1.7897-9.3203-13.836-10.193-10.587-0.76666-14.532 0.52164-20.805 6.7949-12.439 12.439-10.211 21.393 10.752 43.224 13.033 13.572 18.493 21.652 18.493 27.365 0 19.947-33.495 17.813-34.1-2.1722-0.1788-5.908-0.4505-5.8189-3.1936 1.0471-3.8056 9.5256-1.6855 15.015 7.1733 18.573 12.146 4.8785 23.325 3.45 32.106-4.1026zm194.3 4.0186c15.52-5.8804 22.569-14.985 22.33-28.842l-0.2174-12.562-4.4408 12.124c-5.957 16.264-12.424 22.818-24.809 25.141-21.544 4.0416-38.185-6.891-44.137-28.997-7.4417-27.636 6.6455-52.552 31.078-54.967 16.189-1.6006 27.34 3.612 33.006 15.43 5.2113 10.869 7.3006 9.0691 4.6805-4.0315-1.5235-7.6175-4.5221-11.133-12.251-14.362-29.979-12.526-61.977 3.1395-68.874 33.72-8.7098 38.618 27.335 71.101 63.635 57.348zm247.65-1.388c14.688-7.595 18.392-18.684 18.392-55.048 0-28.161 0.6898-32.471 5.3939-33.7 2.9666-0.77528-0.8476-1.461-8.4762-1.5238-7.6284-0.0629-12.136 0.58538-10.017 1.4404 4.2696 1.7228 5.6083 67.727 1.4939 73.651-4.692 6.7566-17.808 13.691-25.895 13.691-4.6139 0-12.24-3.3123-16.946-7.3607-8.1927-7.0471-8.6097-8.7773-9.7881-40.61-1.088-29.393-0.5833-33.723 4.3512-37.331 4.9054-3.5869 3.7359-4.0703-9.6475-3.988-11.846 0.0731-14.031 0.79164-9.8357 3.2354 4.5959 2.6769 5.3938 7.9367 5.3938 35.554 0 35.794 1.9629 41.864 16.378 50.654 11.791 7.1894 26.888 7.7037 39.202 1.3355zm639.65-4.7558c10.111-9.4987 13.636-23.903 13.656-55.809 0.012-18.472 1.2057-27.192 3.87-28.267 2.119-0.85504-2.307-1.6641-9.8357-1.798-11.998-0.21329-13.008 0.25429-8.1784 3.7857 4.8273 3.5298 5.3777 8.1463 4.4418 37.259-1.0285 31.996-1.3893 33.506-9.7161 40.663-11.962 10.281-24.99 9.7151-36.281-1.5765-8.8663-8.8661-9.0095-9.549-9.0095-42.925 0-29.709 0.669-34.09 5.3938-35.325 2.9666-0.77528-1.541-1.461-10.017-1.5238-8.4761-0.0629-13.677 0.58538-11.558 1.4404 2.7199 1.0975 3.8527 10.571 3.8527 32.219 0 36.409 4.1206 48.682 18.865 56.189 13.893 7.0735 34.512 5.0671 44.517-4.3317zm135.99 6.1438c15.539-5.8874 22.572-14.983 22.303-28.842l-0.2435-12.562-4.7209 13.352c-3.0739 8.6929-8.0977 15.411-14.397 19.252-30.742 18.745-63.357-11.077-54.624-49.947 3.9731-17.683 14.714-27.698 31.486-29.356 16.189-1.6006 27.34 3.612 33.006 15.43 5.2114 10.869 7.3005 9.0691 4.6802-4.0315-1.5235-7.6175-4.5222-11.133-12.251-14.362-29.98-12.526-61.977 3.1395-68.874 33.72-8.7098 38.618 27.335 71.101 63.635 57.348zm-1588.7-2.9728c-6.1173-2.4589-6.935-4.9796-6.935-21.38v-18.593h52.398v18.34c0 14.215-1.2131 19.047-5.3937 21.482-4.1052 2.391-1.3435 3.0786 11.558 2.8778 9.3236-0.14517 14.525-0.89813 11.558-1.6734-4.8096-1.2569-5.3938-6.0346-5.3938-44.108 0-38.074 0.5842-42.852 5.3938-44.108 2.9666-0.77528-2.2346-1.4096-11.558-1.4096-9.3238 0-14.525 0.63431-11.558 1.4096 4.431 1.158 5.3937 4.9446 5.3937 21.218v19.808h-52.398v-18.34c0-14.215 1.2131-19.047 5.3939-21.482 4.1795-2.4344 1.9243-3.1416-10.017-3.1416-11.941 0-14.197 0.70727-10.017 3.1416 4.6987 2.7368 5.3939 8.2987 5.3939 43.156 0 38.616-0.2422 40.112-6.935 42.802-5.281 2.1227-2.5245 2.7875 11.558 2.7875s16.839-0.66479 11.558-2.7875zm177.71-6.5682c4.3237-12.403 2.5808-14.247-3.9892-4.2197-4.3361 6.6177-7.44 7.8017-20.452 7.8017-15.34 0-15.34 0-15.34-18.493 0-18.493 0-18.493 12.176-18.493 8.3443 0 13.164 1.6974 15.317 5.3939 2.4677 4.2368 3.1416 2.4186 3.1416-8.4761 0-10.895-0.6739-12.713-3.1416-8.4761-2.153 3.6965-6.973 5.3938-15.317 5.3938-12.176 0-12.176 0-12.176-18.493 0-18.493 0-18.493 15.411-18.493 11.644 0 15.411 1.1302 15.411 4.6233 0 2.5428 1.3871 4.6233 3.0823 4.6233s3.0822-4.3425 3.0822-9.6499c0-9.4358-0.2566-9.6075-11.558-7.7395-6.357 1.0508-19.88 2.0352-30.052 2.1877-10.171 0.15257-16.413 1.0692-13.87 2.0372 8.1591 3.1059 9.1521 7.879 9.1521 43.987 0 36.108-0.993 40.881-9.1521 43.987-2.5428 0.96797 8.7642 1.8694 25.127 2.0032 29.75 0.2432 29.75 0.2432 33.148-9.5031zm520.89 0c4.3239-12.403 2.5808-14.247-3.9892-4.2197-4.3361 6.6177-7.4399 7.8017-20.452 7.8017h-15.34v-39.916c0-34.763 0.6961-40.321 5.3938-43.057 4.1171-2.398 1.3814-3.1062-11.558-2.992-9.3238 0.0823-14.872 0.94156-12.329 1.9095 8.1591 3.1059 9.1522 7.879 9.1522 43.987 0 36.108-0.9931 40.881-9.1522 43.987-2.5429 0.96797 8.7641 1.8694 25.127 2.0032 29.75 0.2432 29.75 0.2432 33.148-9.5031zm248.55 2.181c10.525-10.525 10.047-24.331-1.2325-35.611-7.8744-7.8745-8.3057-9.2899-4.1095-13.486 7.1845-7.1846 5.927-23.433-2.3314-30.12-5.476-4.4342-11.858-5.6055-29.024-5.3266-12.102 0.19665-19.577 0.99185-16.611 1.7671 4.8095 1.2569 5.3937 6.0346 5.3937 44.108 0 38.074-0.5842 42.852-5.3937 44.108-2.9666 0.77526 6.1117 1.5705 20.174 1.7671 23.285 0.3256 26.244-0.31803 33.134-7.2079zm-35.586-38.668c0-40.069 0-40.069 7.6344-40.069 4.832 0 9.5733 2.959 12.916 8.0607 4.7326 7.2229 4.8093 8.9048 0.7386 16.182-2.4986 4.4665-7.638 8.5668-11.421 9.1118-8.7152 1.2557-5.7025 6.7146 3.7057 6.7146 9.5021 0 17.248 9.2377 17.248 20.57 0 11.709-8.4082 19.499-21.048 19.499-9.7745 0-9.7745 0-9.7745-40.069zm179.54 44.192c-4.8087-1.9404-4.8978-7.7038-0.2758-17.848 3.1732-6.9648 5.4068-7.8505 19.795-7.8505 15.904 0 16.29 0.21637 19.9 11.154 2.9971 9.0811 2.8983 11.65-0.5315 13.823-2.6563 1.6828 2.0503 2.614 12.739 2.5206 12.182-0.10632 15.165-0.87167 10.602-2.7194-4.2672-1.7278-11.762-14.849-22.848-40.002-9.0738-20.587-17.559-38.086-18.856-38.888-1.2969-0.80157-3.3352 1.6212-4.5294 5.384-5.7424 18.093-32.33 70.097-37.322 72.999-4.5154 2.6254-2.5638 3.251 9.7682 3.1313 8.4761-0.0822 13.677-0.84917 11.558-1.7042zm12.131-46.503c3.5149-8.0523 6.6422-14.956 6.9496-15.342 0.3073-0.38592 3.4756 6.2023 7.0406 14.64 6.4819 15.342 6.4819 15.342-6.9496 15.342-13.431 0-13.431 0-7.0406-14.64zm137.36 45.216c-4.6172-2.6894-5.3938-8.0005-5.3938-36.893v-33.751h13.87c7.6286 0 13.87 1.387 13.87 3.0822 0 1.6952 1.387 3.0822 3.0822 3.0822s3.083-3.1208 3.0839-6.935c0-6.822-0.6259-6.935-38.525-6.935-38.526 0-38.526 0-38.431 9.2466 0.087 8.3468 0.4936 8.7217 4.1896 3.8528 2.7396-3.609 8.3168-5.3939 16.854-5.3939 12.76 0 12.76 0 12.76 33.751 0 28.892-0.7765 34.203-5.394 36.893-4.1794 2.4344-1.9242 3.1416 10.017 3.1416 11.942 0 14.197-0.70728 10.017-3.1416zm446.92 1.2044c-4.8009-1.2546-5.3939-5.9808-5.3939-42.979 0-41.57 0-41.57 11.462-40.613 8.7698 0.73196 12.57 2.9472 16.182 9.4327 4.2084 7.5574 4.2179 9.3738 0.087 16.759-2.8377 5.0732-8.8091 9.4077-15.411 11.186-5.928 1.597-9.0959 3.5162-7.0398 4.2649 2.0559 0.74873 9.9818 10.111 17.613 20.805 14.882 20.855 18.484 23.336 33.61 23.149 9.7651-0.12052 9.7651-0.12052 0.455-4.1772-5.1205-2.2311-15.156-11.799-22.3-21.262-12.032-15.936-12.536-17.349-6.8375-19.158 8.8112-2.7965 16.146-18.53 13.741-29.477-3.1694-14.43-11.842-18.321-39.935-17.915-13.608 0.19665-22.315 0.99185-19.348 1.7671 4.8094 1.2569 5.3937 6.0346 5.3937 44.108 0 38.074-0.5843 42.852-5.3937 44.108-2.9666 0.77526 2.2345 1.4096 11.558 1.4096s14.525-0.63433 11.558-1.4096zm-1196.7-267.7c18.647-2.7273 45.694-6.911 60.103-9.2971 14.409-2.3861 35.908-5.8904 47.774-7.7874 44.668-7.1405 106.97-21.513 118.29-27.288 13.926-7.1048 30.22-24.844 36.396-39.626 5.2296-12.516 5.8375-44.832 1.0787-57.349-1.8433-4.8485-6.0911-12.663-9.4393-17.365-3.3482-4.7021-6.0876-9.0287-6.0876-9.6146 0-0.58592 28.434-1.0653 63.185-1.0653 34.752 0 63.185 0.37649 63.185 0.83663s-3.4534 6.055-7.6741 12.433c-9.6892 14.641-13.736 35.892-10.606 55.694 3.0109 19.047 6.7843 26.551 20.642 41.053 14.006 14.657 32.9 21.914 82.398 31.65 22.038 4.3346 47.004 9.2485 55.48 10.92 13.915 2.7438 54.766 9.0549 118.66 18.333 12.714 1.846 26.931 3.9858 31.593 4.7552 5.6828 0.93788 8.4759 0.0543 8.4759-2.6817 0-7.1892-144.78-142.82-182.62-171.08-16.069-12-18.017-15.782-8.1288-15.782 9.6436 0 88.591-20.3 117.7-30.265l25.276-8.6526 0.2918 13.137c0.6387 28.75 19.441 56.119 46.249 67.32 20.111 8.403 78.803 5.8116 241.65-10.669 16.104-1.6299 31.708-3.0011 34.675-3.047 11.083-0.17168 4.7452-8.3903-15.411-19.984-40.184-23.115-128.99-70.619-158.96-85.029l-30.282-14.561 17.953-10.164c24.622-13.94 86.526-54.61 88.852-58.374 3.2567-5.2695 6.9506-3.3784 8.9484 4.5809 5.0538 20.136 40.124 44.655 63.964 44.718 16.722 0.0447 77.43-18.479 157.84-48.161 39.214-14.476 75.806-27.818 81.315-29.65 14.514-4.8258 12.323-10.437-6.1644-15.794-31.35-9.0825-139.82-35.605-167.97-41.072-15.672-3.0434-28.44-6.227-28.373-7.0746 0.068-0.84761 9.8354-11.944 21.707-24.658s29.496-33.113 39.166-45.332l17.581-22.215 10.788 10.318c15.998 15.3 28.024 20.243 49.25 20.243 24.74 0 38.18-6.9514 120.93-62.55 79.28-53.265 105.67-72.556 105.67-77.237 0-4.8664-69.31-6.0063-149.42-2.4572-34.788 1.5412-63.682 2.4227-64.209 1.959-0.5271-0.46372 7.2133-17.287 17.2-37.385 9.987-20.098 21.355-44.583 25.262-54.41 7.1036-17.868 7.1036-17.868 13.663-11.705 16.137 15.16 47.037 20.062 68.99 10.944 13.762-5.716 35.394-26.461 83.424-80.001 60.196-67.103 87.62-100.55 84.771-103.4-1.5325-1.5324-9.3096-0.8779-18.069 1.5206-8.4581 2.316-29.942 7.953-47.741 12.527-46.208 11.873-124.33 34.47-141.07 40.806-2.9377 1.1118-3.2108-0.36052-1.0973-5.9193 4.2568-11.196 15.231-69.174 17.547-92.706 1.1266-11.443 2.6353-20.805 3.3529-20.805 0.7178 0 6.7423 2.774 13.388 6.1644 16.979 8.6622 43.87 8.2742 60.007-0.86554 6.7282-3.8107 17.481-13.844 23.895-22.295 11.065-14.58 97.948-182.56 97.948-189.37 0-5.5563-8.2391-3.563-26.78 6.4793-39.11 21.183-120.83 68.811-141.41 82.416l-21.784 14.401-3.7246-54.03c-2.0481-29.717-4.5246-59.155-5.5029-65.418-1.7787-11.388-1.7787-11.388 9.978-5.3939 29.654 15.118 70.211 0.1411 83.188-30.72 4.5614-10.848 18.236-60.185 22.714-81.951 1.395-6.7809 6.7486-32.44 11.897-57.021 12.374-59.077 14.092-70.891 10.309-70.891-2.8257 0-14.616 10.721-83.75 76.153-12.714 12.033-34.182 34.419-47.706 49.747l-24.589 27.869-8.1416-29.88c-8.1062-29.751-27.012-83.828-33.629-96.193-3.4381-6.4244-3.3692-6.4388 6.4742-1.3487 7.0625 3.6522 15.091 4.773 27.67 3.8631 22.294-1.6125 40.138-12.751 49.636-30.984 6.5838-12.638 6.7935-15.788 5.9989-90.151-0.9639-90.161-3.5911-131.58-8.448-133.18-6.0094-1.9842-97.826 150.44-105.94 175.88-3.7908 11.878-3.7908 11.878-15.255-9.2466-10.379-19.123-45.739-76.053-57.406-92.422-4.6113-6.4702-4.4734-6.5478 8.9556-5.0342 39.069 4.4037 67.245-25.428 62.462-66.131-3.8656-32.893-49.944-184.67-55.797-183.79-7.1649 1.0787-57.021 169.52-57.021 192.65 0 8.2205-1.4089 7.2135-21.126-15.099-11.62-13.149-32.409-34.656-46.199-47.794-19.823-18.886-23.671-23.887-18.375-23.887 12.656 0 31.629-11.876 40.487-25.343 7.5961-11.548 8.5347-15.517 7.5627-31.98-0.9496-16.083-3.6896-23.421-18.99-50.856-29.659-53.18-77.201-128.93-80.992-129.04-4.6336-0.1405-7.4545 43.857-8.1986 127.87l-0.574 64.796-22.656-16.242c-44.801-32.118-119.18-73.703-169.12-94.558-20.681-8.6363-25.521-9.6074-25.521-5.1205 0 1.5869 14.91 10.134 33.134 18.994 93.36 45.39 194.41 121.84 264.58 200.18 151.36 168.96 229.95 372.25 229.91 594.68-0.065 353.69-214.43 672.09-542.61 805.95-44.189 18.024-143.15 47.951-146.73 44.371-0.7449-0.74484 4.3205-10.318 11.256-21.274 35.804-56.556 86.188-145.53 83.776-147.94-5.3496-5.3497-206.78 92.102-230.07 111.31-17.495 14.427-25.027 31.171-25.197 56.009l-0.142 20.801h-36.987l-0.142-20.801c-0.1696-24.835-7.6993-41.575-25.197-56.017-23.247-19.188-224.59-116.78-229.92-111.44-2.5772 2.5773 46.498 89.462 83.71 148.2 6.9803 11.019 11.464 20.453 9.9632 20.964-7.9234 2.7008-106.89-27.858-153.61-47.431-209.96-87.964-379.4-257.32-467.26-467.03-96.509-230.35-89.258-495.98 19.635-719.35 87.041-178.54 234.55-327.07 408.61-411.45 17.663-8.562 32.114-17.075 32.114-18.917 0-5.514-13.888-0.507-59.975 21.622-50.785 24.385-91.096 47.694-129.58 74.925l-27.74 19.629-1.0021-77.151c-1.0762-82.867-3.347-114.25-8.2445-113.95-4.0215 0.248-66.959 100.92-85.66 137.02-17.594 33.961-19.243 51.437-6.8498 72.584 7.5381 12.863 27.515 25.995 39.544 25.995 2.8551 0 5.1912 0.5501 5.1912 1.2225 0 0.6725-10.579 11.422-23.509 23.887-12.93 12.465-32.829 33.181-44.22 46.035l-20.71 23.371-3.4187-21.99c-5.9569-38.316-48.818-178.86-54.547-178.86-6.0915 0-52.186 152.11-55.816 184.19-4.618 40.818 23.392 70.594 62.283 66.211 9.519-1.0729 12.784-0.5033 11.188 1.952-1.2395 1.9069-10.291 15.69-20.114 30.628s-25.181 40.156-34.128 56.038c-16.268 28.876-16.268 28.876-20.21 17.531-7.7376-22.272-99.572-176.24-105.12-176.24-4.9514 0-6.029 11.482-8.6809 92.49-3.282 100.26-1.8893 120.78 9.3458 137.76 15.118 22.84 49.947 32.339 74.34 20.274 8.64-4.2736 8.64-4.2736 4.2245 4.3664-6.8295 13.364-31.692 86.694-36.084 106.43l-3.9284 17.651-18.594-20.733c-29.572-32.975-132.61-132.98-137.15-133.11-4.9795-0.1446-3.9827 7.4584 9.2784 70.771 5.1485 24.581 10.502 50.24 11.897 57.021 4.1239 20.046 18.314 71.92 22.155 80.99 5.2239 12.336 20.949 28.282 32.831 33.292 15.434 6.5077 39.991 5.5863 52.378-1.9655 10.374-6.3249 10.374-6.3249 8.6289 5.4053-0.96 6.4516-3.453 36.166-5.5399 66.033l-3.7943 54.302-14.081-9.9838c-15.897-11.271-94.85-57.615-138.6-81.357-28.939-15.704-37.295-18.518-37.295-12.562 0 6.8716 86.917 175.01 97.805 189.2 17.722 23.099 25.507 27.64 49.736 29.009 16.843 0.9517 23.477-0.0918 33.683-5.2987 6.9902-3.5661 13.317-6.4838 14.06-6.4838 0.7429 0 2.3256 10.056 3.5167 22.346 2.3206 23.944 15.333 89.663 18.894 95.424 1.4698 2.3781 0.2811 2.7622-3.7467 1.2106-9.0369-3.4811-129.15-38.219-139.7-40.403-2.693-0.55743-18.073-4.4827-34.177-8.7228-16.104-4.2401-30.477-6.557-31.938-5.1487-2.768 2.667 24.593 36.119 83.209 101.73 46.501 52.052 71.321 75.858 85.018 81.544 21.798 9.0494 51.832 4.7868 67.331-9.5558 7.8989-7.31 7.8989-7.31 15.133 10.437 3.9785 9.7606 15.418 34.191 25.422 54.289 10.004 20.098 17.757 36.917 17.23 37.375-0.5268 0.45813-30.778-0.44184-67.225-1.9999-80.191-3.4281-145.45-2.3957-147.01 2.3258-1.7246 5.1991 125.79 93.489 179.53 124.3 24.959 14.311 29.021 15.67 46.844 15.67 22.169 0 38.324-6.6672 52.244-21.561 8.6892-9.2974 8.6892-9.2974 22.465 8.4434 7.5766 9.7575 25.249 30.489 39.272 46.071 14.023 15.581 25.496 29.105 25.496 30.052 0 0.94689-3.3447 1.7216-7.4324 1.7216-8.0306 0-45.78 8.5697-123.56 28.05-69.346 17.368-81.678 21.197-81.678 25.357 0 6.4554 188.16 73.824 230.78 82.625 16.322 3.3713 20.839 3.1754 35.843-1.5543 24.017-7.5708 37.56-20.526 49.726-47.569 0.2311-0.51358 12.106 7.2422 26.389 17.235 14.283 9.9928 39.35 26.154 55.704 35.913l29.735 17.745-49.96 25.216c-74.543 37.624-159.7 85.709-158.45 89.469 1.3074 3.9225 14.623 6.057 68.418 10.968 22.038 2.0117 60.013 5.633 84.389 8.0473 53.835 5.332 107.9 5.6648 124.26 0.76485 27.288-8.1758 48.992-37.795 49.873-68.065l0.3877-13.316 30.218 10.119c30.069 10.069 97.558 27.361 114.05 29.22 8.0895 0.91212 6.7526 2.5195-20.702 24.891-56.903 46.367-171.34 154.26-171.34 161.55 0 2.5736 2.94 3.4681 8.4761 2.5792 4.6617-0.74854 23.733-3.5925 42.38-6.3198zm-6.1644-34.187c69.915-66.945 146.96-134.32 160.8-140.63 10.749-4.8975 8.7034-11.005-4.382-13.083-25.983-4.1269-104.15-24.047-127.63-32.523-13.817-4.9893-26.988-9.0715-29.27-9.0715-3.0191 0-4.1489 5.0692-4.1489 18.616 0 29.507-14.875 51.694-42.358 63.177-20.044 8.3749-74.02 5.6159-249.96-12.777l-16.464-1.7211 20.658-12.072c11.362-6.6395 20.921-12.072 21.242-12.072 0.3213 0 18.545-9.8337 40.497-21.853 21.952-12.019 58.914-31.09 82.138-42.38 23.224-11.29 42.295-21.995 42.38-23.789 0.086-1.7936-17.699-13.932-39.52-26.974-21.822-13.042-49.185-30.646-60.808-39.119s-21.855-15.401-22.739-15.394c-0.8839 6e-3 -4.1778 6.2626-7.3198 13.903-7.339 17.846-26.125 33.921-44.907 38.426-17.842 4.2802-34.444 0.87056-97.326-19.989-44.743-14.842-152.83-54.694-151.62-55.903 3.108-3.108 162.17-42.285 187.07-46.074 27.446-4.1772 27.479-4.9795 1.321-33.026-12.957-13.893-33.286-37.397-45.175-52.23-11.889-14.833-22.146-26.969-22.793-26.969-0.6476 0-6.2605 5.6264-12.473 12.503-13.558 15.007-27.654 21.425-46.856 21.333-16.93-0.0805-29.551-5.4655-66.669-28.446-28.911-17.899-139.49-93.093-144.86-98.503-2.0708-2.0874 31.558-2.6621 102.48-1.7515 58.061 0.74545 105.57 0.1831 105.57-1.2495 0-1.4326-8.7801-20.269-19.512-41.859-10.731-21.59-22.737-47.576-26.679-57.747-3.9423-10.171-8.2474-19.72-9.5667-21.219-1.3194-1.499-8.0997 2.1542-15.067 8.1181-18.523 15.855-41.011 19.017-63.251 8.8945-16.354-7.4437-100.78-96.971-153.2-162.45-5.2542-6.5636-5.2542-6.5636 23.117 0.40632 15.604 3.8334 35.999 9.11 45.323 11.726 9.3236 2.6157 20.42 5.6784 24.658 6.8061 27.192 7.2352 91.774 27.034 96.59 29.612 3.1814 1.7027 6.8937 1.927 8.2495 0.49853 1.3559-1.4284-1.4245-22.015-6.1786-45.748-4.7542-23.733-9.5966-52.967-10.761-64.964-2.8821-29.695-4.2338-31.252-18.641-21.476-14.91 10.118-22.707 12.037-41.557 10.225-20.772-1.996-33.34-12.478-51.82-43.22-22.327-37.141-84.915-163.69-80.03-161.82 8.8149 3.3826 131.61 74.67 156.13 90.636 14.18 9.235 26.153 16.372 26.608 15.86 0.4546-0.51224 1.7347-19.656 2.8449-42.541 1.7706-36.502 5.1468-71.69 9.5369-99.401 1.0835-6.8388 0.1671-8.4761-4.7445-8.4761-3.3481 0-6.0873 1.2364-6.0873 2.7476 0 1.5111-5.576 4.9786-12.391 7.7055-34.723 13.893-65.19-2.2476-77.115-40.854-8.9481-28.97-17.584-65.884-32.515-138.97-4.3122-21.11-8.5238-39.488-9.3592-40.839-0.8356-1.3518-0.3579-2.4577 1.0614-2.4577 5.0156 0 131.97 128.28 139.56 141.02 4.2381 7.1101 9.1098 12.965 10.826 13.01 1.7163 0.046 5.7328-9.2794 8.9255-20.722 11.364-40.726 21.13-70.555 33.346-101.85 6.8123-17.45 11.721-32.393 10.908-33.206s-7.5716 2.0049-15.019 6.2623c-26.35 15.063-58.366 6.5999-72.906-19.272-6.4904-11.548-6.9019-15.855-6.9019-72.25 0-66.154 2.9986-134.91 5.8835-134.91 1.0198 0 7.5463 9.3621 14.504 20.805 47.988 78.926 58.381 96.55 70.641 119.8 8.6126 16.33 13.767 30.091 13.767 36.758 0 16.526 6.5405 12.906 18.361-10.161 14.788-28.858 40.842-71.755 60.94-100.34 16.502-23.468 18.906-31.86 6.9953-24.422-19.608 12.246-52.285 5.4428-67.085-13.966-15.628-20.494-10.087-53.12 30.989-182.44l10.235-32.224 10.247 33.765c30.133 99.289 37.77 129.62 38.18 151.66 0.2283 12.29 1.3375 22.346 2.4641 22.346 1.1268 0 11.912-11.618 23.967-25.817 12.055-14.2 36.478-39.84 54.272-56.979 17.794-17.139 32.354-31.874 32.354-32.745 0-0.8704-6.0363-1.5826-13.414-1.5826-25.022 0-48.23-23.194-48.23-48.202 0-16.423 16.103-48.374 60.806-120.65l31.04-50.184 2.1072 34.773c1.159 19.125 1.6453 62.168 1.0807 95.65-1.1111 65.9-0.8948 66.68 14.919 53.742 19.164-15.679 88.906-61.64 79.604-52.461-1.6953 1.673-12.791 9.7755-24.658 18.006-76.772 53.246-152.11 127.44-209.47 206.27-64.215 88.258-111.33 187.04-139.76 293.02-9.5176 35.478-10.525 40.091-17.5 80.137-20.263 116.34-16.073 237.34 12.305 355.36 71.568 297.63 298.74 540.32 590.22 630.54 29.061 8.9948 85.291 23.523 91.045 23.523 4.0695 0 0.391-11.178-7.4247-22.561-14.959-21.787-87.024-144.58-85.654-145.95 1.888-1.888 81.052 35.112 148.44 69.379 68.167 34.663 82.1 45.958 87.447 70.892 1.8594 8.6703 2.5207 22.04 1.4695 29.709-1.2936 9.437-0.7796 14 1.5897 14.116 1.9257 0.094 12.517 0.17137 23.536 0.17137s21.61-0.077 23.536-0.17137c2.3694-0.11589 2.8833-4.6793 1.5897-14.116-1.0511-7.6698-0.3899-21.039 1.4696-29.709 5.7591-26.854 18.459-36.433 106.29-80.167 42.186-21.005 89.683-44.03 105.55-51.167 26.159-11.766 28.414-12.312 24.187-5.8616-2.5637 3.9127-16.776 27.827-31.583 53.143-14.807 25.316-35.054 59.003-44.992 74.86-16.88 26.932-21.307 37.448-15.759 37.428 7.1066-0.0246 81.352-20.426 111.71-30.694 253.76-85.836 457.35-288.76 545.37-543.6 36.887-106.8 54.524-233.15 46.784-335.17-4.2662-56.228-5.0481-63.186-11.404-101.5-4.8998-29.528-22.276-100.95-30.277-124.45-63.808-187.42-181.29-345.84-336.23-453.42-23.223-16.123-33.543-24.78-18.493-15.513 5.0857 3.1314 12.714 7.8354 16.952 10.453 4.2381 2.6177 21.046 14.18 37.35 25.694 16.304 11.514 30.868 20.936 32.363 20.938 1.5121 0 2.2764-27.016 1.722-60.874-0.5483-33.482-0.061-76.552 1.0845-95.711l2.0813-34.834 30.862 50.245c47.93 78.034 60.977 103.75 60.977 120.17 0 25.106-19.517 45.481-46.004 48.026-8.6024 0.8266-15.641 2.0246-15.641 2.6622s15.419 16.056 34.265 34.264c18.846 18.207 43.238 43.862 54.204 57.01 10.967 13.148 20.976 23.906 22.242 23.906 1.2665 0 2.4223-10.056 2.5685-22.346 0.176-14.774 3.3695-33.313 9.4243-54.709 14.242-50.327 34.97-118.2 37.568-123.02 1.4906-2.7632 6.9195 10.187 14.86 35.445 38.615 122.84 43.157 151.09 27.575 171.53-14.8 19.409-47.477 26.212-67.085 13.966-12.351-7.713-9.2535 1.3771 9.9001 29.055 23.252 33.601 47.594 73.829 59.783 98.798 4.7578 9.7475 10.262 17.723 12.231 17.723 1.9693 0 4.2833-6.235 5.1421-13.856 1.0855-9.6306 8.373-25.843 23.9-53.168 28.976-50.994 71.916-120.93 74.268-120.97 2.8726-0.039 5.8676 68.89 5.8676 135.04 0 57.911-0.2713 60.583-7.4032 72.752-14.921 25.46-43.955 33.056-71.126 18.609-8.0967-4.3049-15.41-7.1387-16.251-6.2972-0.8415 0.8416 2.2827 10.952 6.9427 22.468 12.011 29.68 30.432 84.822 37.111 111.09 3.125 12.29 7.1796 22.346 9.0102 22.346 1.8305 0 6.0708-5.1983 9.423-11.552 5.5266-10.475 135.61-142.56 140.4-142.56 1.1155 0 0.1665 8.6687-2.1119 19.264-2.2768 10.595-5.4607 25.505-7.0752 33.134-15.678 74.074-30.292 131.71-36.677 144.67-8.1611 16.552-25.435 28.564-43.586 30.308-12.704 1.2206-18.55-0.06-32.491-7.1125-9.3499-4.7306-17.543-8.026-18.208-7.3232-0.6648 0.7029 0.6142 15.233 2.8424 32.289 2.2281 17.056 5.0499 50.69 6.2711 74.743 1.2209 24.053 2.7509 43.733 3.3996 43.733 0.6488 0 11.786-7.0239 24.75-15.609 24.193-16.021 155.99-92.268 159.49-92.268 2.4697 0-75.253 153.82-87.457 173.08-12.848 20.281-27.979 30.955-46.39 32.724-18.85 1.8113-26.647-0.10695-41.557-10.225-14.355-9.7414-15.581-8.3233-18.433 21.309-1.1635 12.089-3.3005 27.527-4.7484 34.308-1.4485 6.7808-3.3754 17.212-4.2822 23.18-0.907 5.9683-3.7402 19.816-6.2963 30.773-4.918 21.081-3.1294 27.234 6.4295 22.118 8.7235-4.6688 85.356-27.177 143.9-42.266 41.092-10.591 51.012-12.299 47.535-8.1841-85.736 101.46-137.48 156.34-154.94 164.32-22.05 10.084-48.786 5.5631-66.299-11.21-9.5463-9.1434-12.619-7.2275-19.824 12.361-3.1175 8.4761-15.182 34.507-26.811 57.846-11.629 23.339-21.143 43.563-21.143 44.941 0 1.3785 47.504 1.8966 105.57 1.1511 67.529-0.86696 104.46-0.28849 102.48 1.6052-11.595 11.137-131.43 91.33-166.67 111.54-23.107 13.249-29.672 15.625-43.184 15.625-20.892 0-34.689-6.0848-48.526-21.401-6.2127-6.8767-11.826-12.503-12.473-12.503-0.6476 0-10.918 12.136-22.823 26.969-11.905 14.833-31.49 37.593-43.523 50.577-12.032 12.984-21.877 25.094-21.877 26.911 0 1.8165 3.1208 3.9369 6.935 4.7121 58.703 11.93 198.58 46.002 201.71 49.135 1.3457 1.3459-105.45 40.768-152.91 56.447-53.17 17.563-78.731 23.424-90.803 20.82-23.776-5.1281-42.802-20.637-51.222-41.753-2.2867-5.7347-4.4812-10.874-4.8766-11.421-0.3953-0.54662-19.227 11.415-41.848 26.581-22.621 15.166-50.145 32.498-61.164 38.515-11.019 6.0169-20.335 12.78-20.702 15.028-0.3977 2.4372 12.052 10.08 30.822 18.921 17.319 8.158 63.831 32.43 103.36 53.939 83.303 45.326 83.952 39.752-5.6035 48.105-105.13 9.8053-121.56 11.036-147.35 11.036-31.099 0-45.764-3.9065-60.612-16.145-15.958-13.154-23.2-29.244-23.2-51.541 0-21.818 0.2087-21.742-29.599-10.845-31.588 11.548-126.68 35.38-141.18 35.38-1.0051 0-1.8274 2.0805-1.8274 4.6233 0 2.5428 1.2495 4.6233 2.7768 4.6233 10.72 0 201.35 169.85 196.3 174.9-0.7739 0.77385-15.715-0.8726-33.203-3.6588-17.488-2.7862-41.505-6.5258-53.371-8.3102-11.866-1.7844-31.978-5.0929-44.692-7.3521-12.714-2.2592-32.826-5.7871-44.692-7.8396-56.201-9.721-87.208-19.846-101.33-33.09-26.071-24.447-27.334-78.266-2.3582-100.49 13.425-11.944 9.7243-12.622-68.914-12.622-41.533 0-75.514 1.1868-75.514 2.6372 0 1.4505 3.6777 6.9985 8.1726 12.329 11.829 14.027 16.485 27.212 16.485 46.678 0 31.46-15.829 54.908-44.346 65.689-16.255 6.1455-45.122 13.162-77.401 18.813-10.171 1.7806-29.589 5.223-43.151 7.6497-13.562 2.4267-35.754 6.0521-49.315 8.0565-13.562 2.0044-36.447 5.5857-50.856 7.9585-14.409 2.3728-28.279 4.2485-30.822 4.1683-2.5428-0.0801 10.634-14.755 29.281-32.61zm349.83-478.87c0-1.8441-12.074-3.0822-30.059-3.0822-83.955 0-222.37-12.093-287.41-25.111-9.3237-1.8662-18.339-3.6624-20.034-3.9916-30.497-5.9221-85.028-24.572-105.25-35.995-8.7242-4.9291-20.786-14.412-26.803-21.073-11.64-12.884-11.986-13.866-26.696-75.645-5.2473-22.038-12.247-51.013-15.554-64.388-6.8602-27.744-5.1061-40.294 8.5076-60.865 7.8915-11.925 7.8915-11.925-0.6566-31.179-21.657-48.78-43.007-89.568-61.705-117.88-11.194-16.952-28.187-46.684-37.764-66.07-16.659-33.726-17.46-36.454-18.555-63.185-1.2612-30.804 1.3902-40.277 17.461-62.386 6.4945-8.9341 15.333-15.725 28.886-22.193 20.414-9.7424 32.169-12.123 61.669-12.489 9.7474-0.121 17.723-1.6068 17.723-3.302 0-1.774-9.574-3.0822-22.557-3.0822-95.294 0-136.11 74.023-92.219 167.27 4.9721 10.564 21.254 38.625 36.183 62.358 14.928 23.733 37.306 64.212 49.728 89.952l22.585 46.802-9.1883 17.467c-6.5554 12.462-9.1883 21.778-9.1883 32.511 0 16.263 27.833 135.59 36.105 154.79 5.5667 12.922 26.254 31.675 45.959 41.664 45.874 23.253 135.4 44.164 219.99 51.385 11.019 0.94054 24.195 2.2959 29.281 3.012 5.0856 0.71604 30.745 2.2347 57.021 3.3748 26.276 1.1401 48.352 2.6011 49.058 3.2467 3.0715 2.8074 83.476 0.96925 83.476-1.9084zm123.29-6.2568c24.594-2.3696 65.191-7.5044 83.22-10.526 2.5428-0.42615 11.558-1.8146 20.034-3.0856 69.218-10.378 139.14-37.649 163.76-63.864 14.531-15.477 16.176-20.107 30.91-87.03 16.526-75.062 15.844-72.732 21.294-72.732 3.1856 0 4.4157-3.9061 4.4157-14.023 0-13.887-5.5789-28.72-14.724-39.15-4.2798-4.881-4.1248-6.6545 1.6151-18.493 3.4917-7.202 13.661-28.92 22.598-48.262 8.9367-19.342 27.858-53.324 42.047-75.514 48.311-75.553 63.523-116.71 56.192-152.02-1.9202-9.2494-5.4433-21.489-7.829-27.199-6.2056-14.852-22.351-32.17-30.098-32.285-3.6388-0.054-9.3548-2.1686-12.702-4.6991-3.3477-2.5307-15.664-7.4534-27.369-10.939-16.834-5.0134-26.078-5.9535-44.223-4.4977-22.302 1.7895-22.883 1.6599-20.877-4.6582 1.1346-3.5745 2.161-19.323 2.2813-34.996 0.2668-34.821-4.9403-47.448-30.878-74.879-19.272-20.381-27.188-25.226-53.63-32.827-19.021-5.4675-85.904-6.8126-109.71-2.2064-7.2047 1.3937-13.099 1.3853-13.099-0.019 0-1.4041-2.9771-10.51-6.6158-20.235-8.8163-23.564-28.475-44.199-52.287-54.886-16.655-7.4742-21.532-8.2648-43.873-7.1111-30.5 1.5749-50.171 8.7767-86.821 31.786-14.752 9.2617-27.366 16.839-28.031 16.839-0.6646 0-1.2085-12.483-1.2085-27.74 0-16.438-1.2558-27.74-3.0822-27.74-1.8591 0-3.0823 12.843-3.0823 32.363 0 24.298 0.9866 32.363 3.959 32.363 2.1774 0 13.62-6.6179 25.428-14.706 59.307-40.625 108.91-48.52 147.04-23.405 18.832 12.402 33.515 32.358 40.978 55.695 5.0273 15.72 5.3262 15.999 14.838 13.87 5.3393-1.195 32.593-2.1727 60.564-2.1727 50.856 0 50.856 0 71.487 10.092 23.575 11.532 44.275 32.836 56.958 58.619 8.2462 16.765 8.461 21.624 3.2938 74.537-0.7452 7.6306-0.7452 7.6306 31.618 7.7054 30.04 0.07 33.882 0.7941 53.514 10.092 11.633 5.5094 22.952 10.017 25.154 10.017s7.8135 4.5077 12.47 10.017c23.844 28.209 27.616 66.254 10.748 108.4-11.398 28.476-17.973 40.235-49.122 87.856-19.396 29.653-68.175 127.32-68.175 136.51 0 1.5612 3.2958 7.2537 7.3239 12.65 4.0283 5.3963 9.0589 15.221 11.179 21.832 3.529 11.004 3.3148 12.437-2.5339 16.952-5.0565 3.9034-9.3805 18.43-20.735 69.658-18.281 82.478-18.949 84.021-45.011 103.85-47.696 36.285-164.89 61.22-323.94 68.924-27.018 1.3087-45.463 3.4618-45.463 5.307 0 3.3299 67.227 1.0781 120.21-4.0264zm-562.37-118.57c4.7165-9.211 10.942-14.806 24.618-22.125 25.385-13.584 82.94-30.753 122.08-36.417 35.582-5.1492 107.85-13.668 129.02-15.208 35.09-2.5534 216.12-2.7067 239.1-0.2025 10.044 1.0942 24.503 2.372 32.132 2.8396 15.278 0.93639 69.703 7.4324 80.813 9.6455 3.8666 0.77021 16.046 2.8287 27.064 4.5745 34.318 5.437 89.839 21.441 110.81 31.942 15.731 7.876 21.796 12.996 28.036 23.665 6.8847 11.772 9.3496 13.615 18.211 13.615 6.0214 0 11.208-1.907 12.574-4.6233 4.7245-9.3916 31.541-125.17 31.226-134.82-0.362-11.079-7.3473-26.645-16.415-36.581-5.8582-6.4186-5.8508-6.7025 0.6009-23.117 3.5926-9.14 8.4232-20.779 10.735-25.865 2.3113-5.0856 7.5443-17.569 11.629-27.74 4.0843-10.171 17.07-33.057 28.858-50.856 50.273-75.916 66.637-106.99 72.201-137.08 5.9475-32.173-2.764-61.63-22.73-76.859-21.224-16.188-31.33-18.614-75.266-18.066-40.729 0.5084-40.729 0.5084-38.528-9.3432 1.2108-5.4184 2.1864-25.109 2.1681-43.756-0.028-27.85-1.1863-36.409-6.4901-47.931-9.4254-20.476-23.913-35.429-43.773-45.182-16.878-8.2882-19.242-8.5994-65.286-8.5994-26.276 0-55.721 1.2277-65.434 2.7285-14.135 2.184-17.901 1.8765-18.869-1.5412-12.994-45.868-22.495-60.951-46.812-74.318-19.285-10.601-45.663-11.512-69.968-2.4189-17.882 6.6905-53.574 27.795-77.856 46.037-8.4762 6.3673-20.41 14.561-26.521 18.207-12.523 7.4739-4.037 11.53-71.712-34.273-38.17-25.833-57.75-34.13-83.877-35.542-18.733-1.0125-24.047-0.059-37.411 6.7132-26.185 13.269-41.962 36.844-47.734 71.325-0.874 5.2204-3.1457 6.0592-14.834 5.4773-98.857-4.9219-108.82-4.7369-127.66 2.3696-24.416 9.2087-44.767 29.558-53.985 53.98-6.0706 16.083-6.7372 22.436-5.4789 52.215 0.7878 18.647 2.4333 36.26 3.6565 39.14 2.0346 4.7895-1.2783 5.1916-38.884 4.72-33.264-0.4171-43.429 0.5134-53.271 4.877-51.292 22.741-61.191 71.642-27.889 137.77 10.916 21.676 18.7 34.365 58.771 95.801 18.627 28.558 53.712 101.63 53.712 111.86 0 2.1466-3.4273 7.1226-7.6161 11.058-9.1097 8.5581-14.812 24.396-14.31 39.744 0.3932 12.008 28.147 125.64 32.325 132.35 1.4432 2.3169 6.6358 3.6255 12.23 3.0822 7.8223-0.75976 10.956-3.3534 16.035-13.273zm-26.057 0.98101c-7.5326-18.796-30.489-125.03-28.851-133.52 2.2292-11.546 8.874-22.755 18.399-31.035 7.3358-6.3773 7.3358-6.3773-7.8975-41.954-20.289-47.384-21.019-48.718-58.758-107.32-18.013-27.971-36.583-58.079-41.266-66.906-33.534-63.202-25.576-110.85 22.149-132.6 8.941-4.0752 20.002-4.9954 55.108-4.585 24.157 0.2823 43.921 0.044 43.921-0.5311 0-0.5745-1.4533-8.5157-3.2295-17.647-13.069-67.183 6.5415-114.11 55.312-132.37 13.22-4.9496 23.981-6.2201 52.397-6.1861 19.669 0.025 43.232 1.4677 52.363 3.2091 27.068 5.1626 36.325 4.2558 38.476-3.7684 1.022-3.8143 1.8909-9.709 1.9306-13.099 0.1131-9.6644 13.632-36.09 23.416-45.772 16.436-16.264 30.707-21.398 55.018-19.792 27.59 1.8234 51.037 12.553 92.64 42.393 16.952 12.159 36.152 24.868 42.666 28.241 11.844 6.1338 11.844 6.1338 35.445-10.058 58.124-39.876 68.869-46.534 86.941-53.878 14.441-5.868 23.873-7.6386 38.035-7.1397 39.032 1.3749 63.27 24.707 72.997 70.268 3.8543 18.052 1.2417 17.554 56.794 10.828 25.632-3.1038 71.07-1.1509 85.93 3.6935 21.132 6.889 40.348 23.01 50.501 42.369 7.5833 14.46 8.3436 18.976 8.3859 49.806 0.025 18.647-0.9882 39.662-2.2529 46.7l-2.2996 12.796 43.909-0.4285c42.234-0.4123 44.52-0.1082 59.9 7.9638 20.158 10.58 30.979 24.669 35.499 46.219 7.1403 34.042-8.4899 72.971-61.374 152.86-20.083 30.338-35.089 57.398-45.927 82.816-24.828 58.229-24.877 58.442-15.781 68.203 10.331 11.086 14.412 19.642 15.2 31.868 0.5229 8.1151-15.567 80.556-27.95 125.83-3.42 12.506-16.028 10.453-22.688-3.693-11.47-24.359-69.615-46.336-160.54-60.681-83.122-13.113-101.92-14.223-240.99-14.223-94.798 0-145.82 1.2486-169.52 4.1483-140.79 17.227-217.9 40.742-232 70.755-6.5581 13.96-17.646 17.091-22.005 6.2151zm19.841-37.6c27.904-19.535 94.812-41.936 147.98-49.546 6.8487-0.98021 15.171-2.2899 18.493-2.9104 17.439-3.2568 47.697-6.836 80.014-9.4646 11.866-0.96522 34.058-2.9492 49.315-4.4088 35.875-3.4321 209.71-1.8415 249.66 2.2844 39.238 4.0523 102.47 12.04 112.5 14.212 4.238 0.91756 12.56 2.5267 18.493 3.5758 49.081 8.6785 107.47 28.694 129.53 44.404 10.781 7.6767 8.8443 11.223 21.39-39.173 12.838-51.567 12.545-57.433-3.6362-72.825-36.106-34.347-135.36-61.168-276.71-74.773-40.048-3.8548-74.688-4.5683-163.36-3.3648-61.892 0.84002-119.47 2.3725-127.94 3.4055-8.4762 1.033-26.507 3.2134-40.069 4.8455-130.69 15.727-225.71 48.339-242.51 83.232-5.0417 10.471-4.8804 11.996 6.1129 57.759 6.2105 25.852 12.046 47.004 12.969 47.004 0.9224 0 4.4131-1.9152 7.7569-4.2561zm-6.8084-8.8432c-0.025-2.119-4.5018-21.47-9.9486-43.002-10.908-43.119-10.703-45.051 6.2744-59.337 38.491-32.388 133.97-57.789 267.76-71.235 55.329-5.5606 200.45-7.377 254.28-3.1828 16.952 1.3209 36.095 2.8181 42.54 3.3272 12.77 1.0087 41.409 4.331 56.091 6.5066 5.0856 0.75363 13.408 1.8935 18.493 2.533 23.034 2.8965 79.816 15.542 107.88 24.024 59.084 17.86 94.007 40.439 94.007 60.778 0 8.889-6.659 39.75-15.432 71.518l-3.0913 11.195-19.805-10.516c-43.429-23.061-104.33-37.839-202.08-49.038-127.54-14.611-328.39-10.895-433.05 8.0108-33.841 6.1131-76.832 15.736-95.548 21.387-20.027 6.0466-59.254 23.934-61.909 28.23-2.4386 3.9457-6.4063 3.2087-6.4584-1.1997zm825.93-138.7c0.8466-2.119 9.3169-23.032 18.823-46.474 9.506-23.442 17.284-43.185 17.284-43.874 0-0.68931-8.1508-0.40134-18.113 0.63989-16.068 1.6794-19.93 0.90415-34.206-6.8659-24.603-13.391-35.784-33.294-41.844-74.489-1.0599-7.2047-2.3314-13.099-2.8255-13.099-0.4943 0-6.4657 5.4028-13.27 12.006-24.692 23.963-57.132 35.999-87.243 32.369-33.418-4.0281-62.866-33.505-77.812-77.89-4.1171-12.226-8.2109-22.955-9.0971-23.841-0.8862-0.88632-5.5196 3.5125-10.296 9.7752-9.8483 12.912-33.339 31.089-53.41 41.328-29.823 15.215-46.274 18.89-92.678 20.704-39.625 1.5495-47.712 0.97682-70.831-5.016-35.894-9.3042-64.784-25.228-88.135-48.579-10.681-10.681-20.013-19.419-20.738-19.419-0.7252 0-2.1695 5.3222-3.2096 11.827-2.9195 18.257-21.775 53.004-36.693 67.617-17.017 16.67-37.695 24.418-62.814 23.537-25.71-0.90165-47.464-11.548-74.305-36.367-5.5096-5.0942-10.131-8.6434-10.271-7.887-0.1393 0.75636-0.8674 5.5362-1.6177 10.622-6.7103 45.478-17.15 64.828-41.683 77.26-16.017 8.1162-24.973 8.6487-45.059 2.6788-9.0666-2.6948-8.8313 0.46359 1.7889 24.009 4.7981 10.638 13.467 30.766 19.264 44.729 5.797 13.963 12.32 25.406 14.495 25.428 2.1753 0.0215 10.544-3.2984 18.596-7.379 29.114-14.753 84.235-29.355 168.55-44.648 85.875-15.577 271.71-18.722 389.9-6.5985 91.73 9.4095 183.86 31.065 226.54 53.249 18.237 9.4791 18.922 9.6313 20.914 4.6458zm-826.91-8.6718c0-1.8029-6.3753-18.1-14.168-36.216-7.7922-18.116-14.761-34.374-15.487-36.13-0.8244-1.9941 5.4449-3.1505 16.709-3.0822 14.811 0.09 20.73-1.5599 33.171-9.2452 18.386-11.358 33.593-37.919 36.91-64.467l2.1515-17.22 13.738 12.663c27.355 25.215 66.902 35.193 100.57 25.375 21.112-6.1558 42.804-27.659 57.478-56.978 6.8292-13.644 12.417-27.421 12.417-30.616 0-3.1941 0.8635-5.8075 1.9189-5.8075s10.54 8.0647 21.077 17.921c36.516 34.159 80.763 49.618 143.44 50.118 64.55 0.51458 111.82-16.291 150.74-53.593 8.3802-8.0313 15.852-13.527 16.603-12.213 0.7516 1.3144 3.1235 7.9378 5.2706 14.719 6.1539 19.434 13.75 32.752 27.716 48.593 18.478 20.96 34.256 29.245 59.346 31.162 32.466 2.4807 56.275-6.2544 81.631-29.948 5.484-5.1246 10.442-8.7187 11.018-7.987 0.5756 0.73175 2.5756 9.9076 4.4446 20.391 7.3136 41.026 39.369 70.991 73.076 68.31 16.357-1.3009 16.46-3.5963-1.7803 39.614-6.5829 15.594-11.969 29.729-11.969 31.411 0 5.9319-6.0894 6.7006-15.31 1.9326-15.515-8.0233-59.04-23.327-78.698-27.671-10.171-2.2477-28.8-6.3489-41.397-9.1138-12.597-2.7649-42.418-7.6598-66.268-10.878-39.458-5.3235-54.875-6.9611-101.93-10.827-84.064-6.9064-253.07-2.0286-315.64 9.1096-4.0815 0.7266-13.79 2.1754-21.575 3.2196-52.943 7.101-128.06 26.739-165.33 43.223-19.373 8.5676-19.883 8.6761-19.883 4.2298zm10.127-106.54c11.957-9.0194 19.709-25.541 23.757-50.635 3.6786-22.804 3.556-23.849-5.9656-50.849-5.3469-15.161-14.757-42.477-20.912-60.7l-11.19-33.134-27.96-0.69913c-59.657-1.4916-76.3 2.2668-89.405 20.19-4.9281 6.7401-6.2859 12.997-6.0201 27.74 0.4214 23.388 7.7867 43.054 30.172 80.567 17.756 29.754 48.952 62.545 67.528 70.979 12.243 5.5589 30.086 4.0159 39.995-3.4585zm-35.676-2.048c-17.132-7.4006-47.556-37.282-61.837-60.735-31.241-51.306-40.61-81.396-31.862-102.33 9.0546-21.671 27.994-27.612 79.179-24.837l32.363 1.7544 11.682 35.739c6.4252 19.656 15.162 44.061 19.416 54.232 6.4771 15.488 7.43 21.498 5.8645 36.986-2.9075 28.765-7.635 40.851-20.541 52.51-12.465 11.261-20.183 12.767-34.266 6.6834zm881.09 5.2178c24.282-11.523 70.623-72.439 87.687-115.27 7.6212-19.129 9.3521-49.92 3.4243-60.919-6.6568-12.351-25.754-21.922-45.583-22.846-37.398-1.742-75.198 0.43453-76.38 4.3979-7.1731 24.056-22.897 70.208-30.191 88.613-7.8885 19.905-8.9006 25.685-7.2862 41.61 3.057 30.154 7.7006 42.124 21.817 56.24 10.739 10.739 15.189 13.11 24.608 13.11 6.3239 0 16.181-2.2223 21.905-4.9384zm-34.095-4.965c-15.727-9.1174-24.776-27.27-27.836-55.839-1.9903-18.585-1.227-22.555 10.279-53.451 6.8361-18.357 15.655-43.229 19.597-55.271l7.1677-21.896 33.904-1.8295c52.685-2.8429 72.066 4.4154 78.826 29.521 7.4784 27.773-18.001 84.608-57.549 128.37-28.091 31.083-47.446 40.221-64.39 30.398zm-653.3-43.907c25.293-10.568 48.116-45.048 54.496-82.328 3.097-18.098 2.6348-21.973-6.3705-53.418-16.09-56.182-25.187-96.956-28.881-129.45-1.9272-16.952-3.9126-31.35-4.4117-31.995-0.4994-0.6453-13.094-3.0234-27.988-5.2846-33.065-5.02-84.349-5.4909-101.05-0.9279-30.726 8.3929-47.739 34.676-47.677 73.653 0.062 39.214 20.765 116.58 42.478 158.73 14.187 27.544 48.592 62.655 68.385 69.789 16.868 6.0791 38.189 6.5935 51.024 1.2309zm-42.694-4.7895c-36.518-10.969-68.589-51.823-89.494-114-16.186-48.144-20.984-69.37-22.816-100.94-2.5381-43.743 8.5557-65.456 38.915-76.168 15.716-5.545 64.82-6.3985 90.073-1.5658 9.1313 1.7475 20.972 3.3542 26.313 3.5701 9.6535 0.3906 9.722 0.5115 11.724 20.71 2.8856 29.111 12.365 73.276 27.41 127.71 13.078 47.315 13.078 47.315 8.2628 67.053-8.5968 35.234-27.504 63.479-48.532 72.502-10.9 4.6773-28.477 5.1544-41.855 1.1361zm578.3 4.2348c20.695-6.7463 49.573-34.471 65.812-63.184 26.701-47.212 50.982-145.12 45.549-183.67-3.7898-26.888-20.107-47.461-44.248-55.786-14.187-4.8931-69.593-4.3751-103.56 0.9683-15.257 2.3998-27.895 4.4309-28.085 4.5141-0.1899 0.083-1.3093 10.787-2.4873 23.788-2.4935 27.515-16.008 89.137-30.641 139.72-9.9731 34.473-10.137 35.953-5.977 53.939 6.1065 26.401 17.136 48.786 31.688 64.312 18.554 19.796 42.649 24.953 71.954 15.4zm-48.781-5.3352c-22.068-10.304-40.402-38.726-49.138-76.177-3.8921-16.684-3.6264-18.658 7.8883-58.589 15.256-52.907 24.914-97.747 29.187-135.51 1.9433-17.177 1.9433-17.177 25.497-20.401 12.954-1.7733 39.504-3.3061 58.999-3.4063 42.755-0.2195 57.538 5.2049 72.388 26.562 17.322 24.913 13.836 73.254-10.692 148.3-18.53 56.695-41.286 91.657-71.922 110.5-20.63 12.692-46.06 16.255-62.206 8.7158zm-248.14-161.8-0.025-140.66-13.076-7.3428c-7.1916-4.0386-26.252-16.721-42.357-28.184-16.104-11.463-37.997-25.386-48.649-30.94-70.064-36.532-108.82 13.09-91.7 117.41 10.922 66.546 30.63 136.07 44.41 156.66 20.363 30.431 46.943 52.068 76.727 62.457 22.511 7.852 55.264 14.017 66.216 12.464 8.4759-1.202 8.4759-1.202 8.4522-141.86zm-33.88 133.88c-41.651-7.7128-67.909-20.725-92.502-45.841-23.751-24.255-28.096-32.931-44.306-88.458-26.424-90.521-30.074-169.28-9.0051-194.32 25.463-30.261 53.53-23.972 128.24 28.737 18.306 12.915 35.991 24.341 39.298 25.391 5.8461 1.8555 6.0139 5.7717 6.0139 140.4 0 108.92-0.8225 138.42-3.8528 138.15-2.1189-0.19018-12.868-2.015-23.887-4.0555zm80.137 5.9892c50.646-8.8603 89.677-34.37 115.94-75.775 7.7141-12.162 22.135-54.331 27.336-79.935 0.5179-2.5493 2.5955-10.777 4.617-18.284 6.9345-25.753 15.423-81.884 15.444-102.12 0.037-36.344-13.606-67.899-33.89-78.388-4.9139-2.5411-15.81-4.6202-24.213-4.6202-19.034 0-47.617 14.284-89.959 44.957-16.18 11.721-34.557 24.053-40.839 27.405l-11.422 6.0948v140.57c0 77.312 0.7287 141.3 1.6193 142.19 1.8045 1.8044 18.889 0.79672 35.367-2.086zm-32.364-4.1579c-0.8469-0.8469-1.5397-62.122-1.5397-136.17v-134.63l25.428-15.977c13.986-8.7873 33.057-21.603 42.38-28.478 25.206-18.588 57.613-33.553 72.66-33.553 16.51 0 31.38 10.01 41.382 27.859 7.1128 12.693 7.6909 16.714 7.5157 52.278-0.1702 34.5-1.5569 45.128-11.866 90.925-0.3816 1.6952-1.7876 7.9367-3.1243 13.87-6.5235 28.953-21.264 75.337-27.203 85.596-23.818 41.147-66.526 69.135-116.53 76.362-23.607 3.4121-27.362 3.6588-29.108 1.9121zm-455.77-197c0.3159-48.861 13.95-79.915 44.331-100.97 28.614-19.83 84.095-27.695 133.52-18.928 21.877 3.8807 24.304 3.8141 25.916-0.711 17.481-49.087 32.881-66.157 71.079-78.786 11.581-3.829 20.963-4.8381 32.227-3.4661 21.905 2.6678 61.331 19.373 86.478 36.641 11.55 7.931 22.299 14.42 23.887 14.42 1.6025 0 2.8873-13.715 2.8873-30.822v-30.822h-157.19v-26.022c0-26.022 0-26.022 12.565-26.969 12.28-0.9261 12.691-1.3327 18.1-17.9 31.865-97.602 49.472-153.28 49.472-156.45 0-2.1031-2.7036-3.8238-6.008-3.8238-5.4919 0-5.9553-2.0521-5.3939-23.887l0.6141-23.887 47.004-0.8509c44.455-0.8046 47.004-1.1807 47.004-6.9349 0-7.3014 1.9091-6.8602-32.363-7.4799l-27.74-0.5016-1.8352-38.171h30.969c30.969 0 30.969 0 30.969-12.329 0-12.329 0-12.329-18.64-12.329h-18.64l0.9176-19.264c0.9176-19.264 0.9176-19.264 18.64-20.188 17.723-0.9245 17.723-0.9245 17.723-16.182v-15.257h52.398v15.411c0 15.411 0 15.411 18.493 15.411s18.493 0 18.493 19.873c0 19.873 0 19.873-16.182 20.805-16.182 0.9317-16.182 0.9317-17.138 12.49-0.9566 11.558-0.9566 11.558 30.199 11.558h31.155l-0.9176 19.264-0.9177 19.264-26.199-0.7031c-30.851-0.8278-36.986 0.6013-36.986 8.6164 0 5.6227 2.5921 5.9567 46.233 5.9567h46.233v24.298c0 21.449-0.7006 24.481-5.9747 25.86-7.0099 1.8332-8.0271-2.8587 19.862 91.623 9.7576 33.057 19.376 66.344 21.374 73.973 3.0941 11.811 4.9096 14.019 12.232 14.875 8.5991 1.0049 8.5991 1.0049 7.5218 26.97-0.6624 15.971 0.1091 25.967 2.005 25.971 1.9078 0 2.7081-11.153 2.1002-29.281-0.9481-28.278-1.2282-29.288-8.1166-29.288-4.1373 0-7.7991-2.266-8.7165-5.3939-0.87-2.9666-5.0857-17.877-9.3683-33.134-9.849-35.089-27.963-97.22-33.921-116.35-3.7246-11.96-3.8081-14.64-0.4565-14.64 3.0423 0 4.3587-7.2415 5.0922-28.011 0.5441-15.406 0.4114-28.582-0.295-29.281-0.7062-0.6989-21.164-1.2706-45.462-1.2706-27.397 0-44.178-1.1706-44.178-3.0821 0-1.8477 12.247-3.0823 30.577-3.0823 30.577 0 30.577 0 32.195-8.4761 0.89-4.6618 1.2523-15.411 0.805-23.887l-0.8132-15.411-31.382-0.8783c-28.843-0.8074-31.382-1.3684-31.382-6.935 0-5.2866 2.1555-6.0566 16.952-6.0566h16.952v-24.658c0-27.297 1.2936-25.937-23.887-25.122-10.017 0.324-10.017 0.324-10.017-16.666v-16.99l-63.185 1.7567-0.9359 16.307c-0.936 16.307-0.936 16.307-16.952 15.411l-16.016-0.8956-0.8953 25.428-0.8951 25.428h17.077c15.022 0 17.077 0.7417 17.077 6.1644 0 5.7535-2.0547 6.1644-30.822 6.1644h-30.822v49.315h30.822c18.493 0 30.822 1.2329 30.822 3.0823 0 1.9178-17.466 3.0821-46.233 3.0821h-46.233v29.281c0 24.839 0.7514 29.281 4.953 29.281 2.7243 0 4.2886 1.7338 3.4762 3.8527-0.8123 2.119-10.801 32.98-22.196 68.579-32.924 102.85-28.931 94.007-42.436 94.007-11.605 0-11.605 0-11.605 30.822v30.822l23.887 0.4377c23.887 0.4376 23.887 0.4376 3.8529 2.5538-41.709 4.4061-71.308 30.892-87.513 78.307-1.6933 4.9543-4.0688 5.5113-16.564 3.8832-30.852-4.02-91.098-2.4563-108.5 2.816-34.992 10.603-62.304 36.517-74.22 70.42-7.6174 21.673-8.7771 85.077-1.5561 85.077 0.192 0 0.4457-14.91 0.5634-33.134zm395.66-172.13c-25.799-16.634-45.884-26.453-66.268-32.396-18.493-5.3925-18.493-5.3925 33.134-5.6119l51.627-0.2195v24.658c0 13.562-0.3466 24.622-0.7705 24.579-0.4237-0.044-8.3991-4.9974-17.723-11.009zm43.151-98.331c0-3.904-7.1917-4.6232-46.233-4.6232-42.974 0-46.233-0.4032-46.233-5.7175 0-3.4101 5.5158-9.204 13.667-14.356 14.898-9.4167 21.504-21.449 37.209-67.769 10.563-31.153 15.692-41.06 26.472-51.13 8.608-8.041 8.6145-8.0779 3.395-19.302-5.2295-11.245-5.2295-11.245-26.778-10.475-21.549 0.7702-21.549 0.7702-26.831 16.181-16.832 49.107-48.709 151.28-48.709 156.12 0 5.3343 3.6188 5.6958 57.021 5.6958 48.63 0 57.021-0.6803 57.021-4.6234zm-107.88-3.8527c-0.01-2.0867 20.864-68.012 43.176-136.39 8.5493-26.199 8.5493-26.199 26.611-27.092 16.089-0.7954 18.399-0.1498 21.144 5.9084 2.5614 5.6519 1.5197 8.4524-6.1644 16.572-5.2434 5.5405-13.041 20.329-18.01 34.16-22.286 62.023-27.385 71.911-42.863 83.124-10.738 7.7786-14.64 12.661-14.64 18.316 0 4.7991-1.7457 7.7107-4.6233 7.7107-2.5428 0-4.6263-1.0403-4.63-2.3117zm244.19 6.7565c0.9459-0.9459 0.4873-5.4536-1.019-10.017-1.5063-4.5637-7.6654-26.328-13.687-48.366-10.307-37.722-14.478-52.671-27.732-99.401l-5.4637-19.264h-25.01c-25.01 0-25.01 0-31.015 11.151-6.0054 11.151-6.0054 11.151 2.0276 17.723 9.5987 7.8522 17.735 23.613 27.259 52.804 13.307 40.785 23.137 58.692 37.523 68.353 7.2945 4.8992 13.721 11.288 14.282 14.199 0.9265 4.8109-3.1963 5.291-45.44 5.291-39.242 0-46.459 0.7182-46.459 4.6232 0 3.9416 8.3334 4.6234 56.507 4.6234 31.079 0 57.281-0.7738 58.227-1.7196zm-17.804-7.2683c3.6304-5.8744-4.5342-18.397-16.309-25.015-13.014-7.3144-19.44-19.262-35.589-66.169-11.21-32.563-16.243-43.035-24.501-50.983-6.2841-6.0482-6.9895-8.4096-4.2853-14.344 2.9419-6.4568 5.2526-7.1043 25.352-7.1043h22.116l6.3821 25.428c3.5101 13.986 13.434 50.394 22.052 80.908 8.6186 30.514 15.684 56.52 15.7 57.791 0.015 1.2714-2.8264 2.3117-6.3169 2.3117-3.4904 0-5.561-1.2706-4.6012-2.8235zm-90.982-160.13c4.3824-8.1884 1.5334-9.6518-18.79-9.6518-18.315 0-22.534 3.4597-14.281 11.712 6.1268 6.1268 29.468 4.6726 33.071-2.0606zm-27.523-0.4052c-3.3803-2.1846-1.0527-3.0005 8.6581-3.035 8.0796-0.028 12.535 1.1599 11.376 3.035-2.4165 3.9098-13.984 3.9098-20.034 0z" stroke-width="3.0822"/>
 </g>
</svg>
